<?xml version="1.0" encoding="utf-8"?>
<!-- Generator: Adobe Illustrator 27.5.0, SVG Export Plug-In . SVG Version: 6.00 Build 0)  -->
<svg version="1.1" xmlns="http://www.w3.org/2000/svg" xmlns:xlink="http://www.w3.org/1999/xlink" x="0px" y="0px"
	 viewBox="0 0 500 500" style="enable-background:new 0 0 500 500;" xml:space="preserve">
<g id="BACKGROUND">
	<rect style="fill:#FFFFFF;" width="500" height="500"/>
</g>
<g id="OBJECTS">
	<g>
		<path style="fill:#A5DDEF;" d="M49.33,425.168c3.477,2.419,6.468,5.481,8.583,9.151c0.367,0.636,0.689,1.234,0.93,1.745
			c0.826,1.756,1.55,3.55,2.206,5.368h394.709c-0.252-7.12,0.004-14.231,0.982-21.293c3.584-11.435,7.151-22.876,10.703-34.323
			c5.263-16.962,9.707-34.331-0.388-50.432c-4.223-6.735-9.909-12.367-14.789-18.604c-5.262-6.725-8.914-14.189-10.591-22.592
			c-3.588-17.988,0.992-36.546,5.907-53.804c5.13-18.014,10.953-36.473,9.677-55.445c-1.149-17.077-7.574-33.288-16.591-47.695
			c-9.527-15.223-22.125-28.211-35.358-40.237c-13.365-12.147-27.175-24.224-41.728-34.932
			c-14.154-10.414-29.746-18.594-47.169-21.748c-17.96-3.251-36.54-1.754-54.202,2.498c-36.847,8.872-68.904,29.701-102.599,46.131
			c-31.552,15.386-67.406,24.786-92.756,50.405c-11.117,11.235-19.082,25.165-21.558,40.879
			c-2.736,17.366,1.104,34.912,4.491,51.901c3.697,18.54,6.706,36.988,2.69,55.754c-3.983,18.612-12.456,35.794-18.457,53.763
			c-5.741,17.19-9.776,36.162-5.041,54.095C32.058,407.406,39.378,418.242,49.33,425.168z"/>
		<g>
			<defs>
				<path id="SVGID_1_" d="M49.33,425.168c3.477,2.419,6.468,5.481,8.583,9.151c0.367,0.636,0.689,1.234,0.93,1.745
					c0.826,1.756,1.55,3.55,2.206,5.368h394.709c-0.252-7.12,0.004-14.231,0.982-21.293c3.584-11.435,7.151-22.876,10.703-34.323
					c5.263-16.962,9.707-34.331-0.388-50.432c-4.223-6.735-9.909-12.367-14.789-18.604c-5.262-6.725-8.914-14.189-10.591-22.592
					c-3.588-17.988,0.992-36.546,5.907-53.804c5.13-18.014,10.953-36.473,9.677-55.445c-1.149-17.077-7.574-33.288-16.591-47.695
					c-9.527-15.223-22.125-28.211-35.358-40.237c-13.365-12.147-27.175-24.224-41.728-34.932
					c-14.154-10.414-29.746-18.594-47.169-21.748c-17.96-3.251-36.54-1.754-54.202,2.498
					c-36.847,8.872-68.904,29.701-102.599,46.131c-31.552,15.386-67.406,24.786-92.756,50.405
					c-11.117,11.235-19.082,25.165-21.558,40.879c-2.736,17.366,1.104,34.912,4.491,51.901c3.697,18.54,6.706,36.988,2.69,55.754
					c-3.983,18.612-12.456,35.794-18.457,53.763c-5.741,17.19-9.776,36.162-5.041,54.095
					C32.058,407.406,39.378,418.242,49.33,425.168z"/>
			</defs>
			<clipPath id="SVGID_00000002374657787562021680000015912058490516085665_">
				<use xlink:href="#SVGID_1_"  style="overflow:visible;"/>
			</clipPath>
			<g style="clip-path:url(#SVGID_00000002374657787562021680000015912058490516085665_);">
				<g>
					<path style="fill:#D5F3FF;" d="M39.514,460.799h427.125V150.601c-5.625-0.771-11.218-1.527-16.746-2.095
						c-25.42-2.616-53.945-0.868-73.663,17.504c-9.819,9.148-13.654,20.74-17.314,33.301c-3.253,11.166-9.972,29.199-24.59,28.315
						c-9.781-0.591-16.139-10.966-21.53-17.892c-6.017-7.729-12.84-15.384-22.832-17.568c-12.169-2.66-24.864,3.119-33.89,10.991
						c-10.904,9.51-18.548,22.56-30.647,30.715c-10.346,6.973-23.688,8.965-32.951-0.655c-6.123-6.359-9.345-15.059-12.475-23.142
						c-6.164-15.918-13.249-35.59-32.826-37.935c-27.879-3.339-42.013,26.703-58.085,43.451
						c-4.629,4.824-10.027,9.051-16.374,11.335c-7.187,2.586-15.017,2.585-22.454,4.02c-3.816,0.736-7.399,1.906-10.747,3.49
						V460.799z"/>
					<path style="fill:#D5F3FF;" d="M341.529,35.322c-8.331,3.597-16.163,7.717-22.814,11.153
						c-15.751,8.138-31.121,17.194-45.784,27.163c-11.707,7.959-23.53,18.056-25.763,32.84c-2,13.246,5.286,24.929,18.318,28.33
						c15.116,3.945,29.413-3.131,44.175-5.082c10.02-1.324,17.772,2.052,26.638,6.134c6.395,2.944,13.07,4.904,20.09,5.589
						c14.363,1.402,29.197-2.155,41.158-10.294c14.588-9.927,22.699-26.071,34.146-39.007c0.364-0.411,0.736-0.82,1.117-1.228
						L341.529,35.322z"/>
					<path style="fill:#D5F3FF;" d="M178.15,56.926l-91.994,52.058c3.036,2.854,6.902,5.002,10.869,6.248
						c12.149,3.818,25.132,0.44,37.341,3.624c20.858,5.439,25.491,31.667,37.793,46.379c6.195,7.408,15.461,13.154,25.417,12.659
						c10.116-0.504,17.087-7.982,19.415-17.435c2.789-11.326,1.072-23.55,0.466-35.032c-0.746-14.135-1.441-28.6,1.505-42.546
						c2.664-12.611,8.083-25.229,17.74-34.067c2.568-2.35,6.653-5.225,10.194-8.5L178.15,56.926z"/>
				</g>
				<g>
					<rect x="-40.616" y="357.174" style="fill:#F0F0FF;" width="533.012" height="110.421"/>
					<g>
						<rect x="167.152" y="357.174" style="fill:#51518C;" width="0.914" height="110.421"/>
						<rect x="221.261" y="357.174" style="fill:#51518C;" width="0.914" height="110.421"/>
						<rect x="194.206" y="357.174" style="fill:#51518C;" width="0.914" height="110.421"/>
						<rect x="140.097" y="357.174" style="fill:#51518C;" width="0.914" height="110.421"/>
						<rect x="113.043" y="357.174" style="fill:#51518C;" width="0.914" height="110.421"/>
						<rect x="31.879" y="357.174" style="fill:#51518C;" width="0.914" height="110.421"/>
						<rect x="58.934" y="357.174" style="fill:#51518C;" width="0.914" height="110.421"/>
						<rect x="85.988" y="357.174" style="fill:#51518C;" width="0.914" height="110.421"/>
						<rect x="302.424" y="357.174" style="fill:#51518C;" width="0.914" height="110.421"/>
						<rect x="437.696" y="357.174" style="fill:#51518C;" width="0.914" height="110.421"/>
						<rect x="383.587" y="357.174" style="fill:#51518C;" width="0.914" height="110.421"/>
						<rect x="410.642" y="357.174" style="fill:#51518C;" width="0.914" height="110.421"/>
						<rect x="464.751" y="357.174" style="fill:#51518C;" width="0.914" height="110.421"/>
						<rect x="248.315" y="357.174" style="fill:#51518C;" width="0.914" height="110.421"/>
						<rect x="356.533" y="357.174" style="fill:#51518C;" width="0.914" height="110.421"/>
						<rect x="275.37" y="357.174" style="fill:#51518C;" width="0.914" height="110.421"/>
						<rect x="329.478" y="357.174" style="fill:#51518C;" width="0.914" height="110.421"/>
					</g>
					<rect x="26.896" y="356.26" style="fill:#51518C;" width="465.499" height="1.828"/>
				</g>
				<g>
					<g>
						<g>
							<path style="fill:#2F594F;" d="M105.097,345.932c0,0,35.974-12.769,47.798-20.973c11.823-8.205,31.92-20.194,22.706-28.151
								s-49.954,19.708-59.513,27.339s-23.738,19.669-23.738,19.669L105.097,345.932z"/>
							<path style="fill:#6A9151;" d="M176.927,298.26l-16.876,9.195l5.559-7.888l8.267-3.726c-0.353-0.124-0.727-0.223-1.124-0.295
								l-6.315,2.846l1.987-2.819c-0.331,0.047-0.669,0.104-1.014,0.168l-6.792,9.637l-1.895-6.928
								c-0.226,0.091-0.453,0.186-0.681,0.281l2.031,7.422l-1.475,2.093l-18.269,9.954l4.895-8.187l8.981-9.585
								c-0.602,0.281-1.208,0.573-1.818,0.871l-5.395,5.758l2.604-4.356c-0.412,0.213-0.825,0.428-1.239,0.647l-6.168,10.317
								l0.365-7.111c-0.252,0.145-0.503,0.291-0.755,0.437l-0.412,8.014l-2.322,3.884l-12.686,6.912l5.549-9.267l7.037-7.872
								c-0.721,0.432-1.437,0.867-2.146,1.303l-2.901,3.245l1.379-2.304c-0.459,0.286-0.914,0.572-1.365,0.857l-4.889,8.166
								L127,316.292c-0.204,0.138-0.407,0.275-0.608,0.411l2.219,3.95l-3.495,5.838l-13.054,7.113l1.208-2.456l8.947-11.553
								c-0.734,0.52-1.431,1.02-2.083,1.494l-5.252,6.781l2.225-4.522c-0.37,0.285-0.711,0.552-1.019,0.798
								c-0.102,0.082-0.208,0.167-0.311,0.249l-4.829,9.815l-17.853,9.728l1.465,0.243l22.598-12.314L121.72,333l2.107,5.817
								c0.226-0.091,0.452-0.181,0.679-0.273l-1.932-5.332l9.272,2.299c0.373-0.159,0.745-0.318,1.117-0.477l-3.568-0.884
								l7.012-0.618c0.609-0.271,1.214-0.542,1.813-0.814l-0.007-0.079l-11.002,0.97l-9.103-2.257l12.85-7.001l8.654,2.793
								l1.633,4.176c0.222-0.105,0.442-0.21,0.662-0.315l-1.396-3.571l5.216,1.684c0.309-0.158,0.614-0.317,0.914-0.474
								l-9.478-3.059l15.967-0.787c0.375-0.259,0.757-0.522,1.146-0.789l-19.08,0.94l-3.352-1.082l16.776-9.141l6.897,2.612
								l1.267,4.964c0.214-0.145,0.428-0.29,0.644-0.437l-1.075-4.211l4.654,1.763c0.243-0.168,0.486-0.337,0.729-0.506
								l-8.022-3.038l12.678-0.323c0.333-0.251,0.661-0.503,0.987-0.756l-15.473,0.395l-2.44-0.924l17.833-9.717l2.615,0.719
								l2.696,5.065c0.183-0.177,0.369-0.354,0.545-0.531l-2.272-4.267l4.832,1.328c0.157-0.212,0.309-0.424,0.451-0.634
								l-7.942-2.182l9.169-4.996C177.263,298.781,177.108,298.519,176.927,298.26z"/>
						</g>
						<g>
							<path style="fill:#2F594F;" d="M60.501,345.932c0,0-12.492-63.846-15.785-89.201c-3.294-25.355-3.294-47.074,12.685-48.735
								c15.978-1.661,14.368,34.809,14.1,51.347c-0.268,16.537,1.812,86.589,1.812,86.589H60.501z"/>
							<path style="fill:#6A9151;" d="M66.547,336.561l6.338-5.658c-0.009-0.315-0.018-0.636-0.026-0.958l-3.466,3.094l3.265-10.525
								c-0.02-0.747-0.04-1.505-0.06-2.272l-4.263,13.742l-1.865,1.664l-1.727-20.461l4.09-4.748l3.594,3.216
								c-0.009-0.334-0.017-0.668-0.026-1.004l-3.091-2.766l2.937-3.409c-0.009-0.363-0.018-0.726-0.027-1.089l-4.258,4.943
								l4.04-14.259c-0.019-0.832-0.037-1.661-0.056-2.487l-5.117,18.061l-2.173,2.522l-2.408-28.534l4.379-4.638l5.145,4.33
								c-0.006-0.325-0.013-0.648-0.019-0.971l-4.624-3.891l4.471-4.735c-0.006-0.352-0.011-0.702-0.016-1.048l-6.414,6.793
								l6.316-15.555c-0.004-0.667-0.007-1.311-0.009-1.922l-7.691,18.944l-1.62,1.716l-2.434-28.843l6.212-5.888l5.636,5.095
								c0.006-0.319,0.012-0.643,0.018-0.97l-5.121-4.629l5.184-4.914c-0.003-0.331-0.007-0.663-0.011-0.997l-7.666,7.267
								l7.275-17.061c-0.038-0.527-0.078-1.054-0.123-1.577l-8.487,19.904l-2.994,2.838l-2.497-29.587l2.76-2.196l10.484,2.801
								c-0.041-0.266-0.085-0.529-0.128-0.792l-9.643-2.576l7.47-5.945c-0.092-0.241-0.185-0.478-0.282-0.711l-5.487,4.367
								l0.487-11.055c-0.232-0.146-0.469-0.283-0.714-0.404l-0.532,12.063l-4.489,3.572l-1.363-16.149
								c-0.306,0.064-0.606,0.136-0.899,0.217l1.866,22.113l-6.846-9.022l0.53-10.902c-0.263,0.201-0.517,0.414-0.763,0.635
								l-0.455,9.36l-3.208-4.228c-0.116,0.251-0.229,0.506-0.337,0.767l6.985,9.205l-9.251,0.551
								c-0.025,0.242-0.044,0.492-0.066,0.737l9.85-0.587l3.677,4.846l2.494,29.55l-6.893-5.812l-9.415-22.025
								c-0.006,0.613-0.006,1.234,0.001,1.862l8.171,19.115l-7.404-6.243c0.034,0.348,0.068,0.694,0.104,1.044l11.672,9.842
								l-10.349,0.868c0.034,0.24,0.068,0.481,0.104,0.725l11.037-0.926l3.06,2.581l2.563,30.378l-6.155-5.077l-9.386-19.575
								c0.131,0.831,0.266,1.676,0.405,2.537l7.639,15.931l-5.775-4.763c0.063,0.368,0.126,0.734,0.19,1.104l9.012,7.434
								l-7.242,2.664c0.043,0.243,0.087,0.487,0.13,0.731l7.765-2.856l3.503,2.89l2.182,25.861l-2.152-1.635l-9.695-15.365
								c0.117,0.645,0.235,1.288,0.352,1.929l7.681,12.174l-6.326-4.805c0.066,0.357,0.132,0.713,0.198,1.068l5.533,4.202
								l-4.515,1.26c0.045,0.241,0.09,0.483,0.135,0.722l5.112-1.427l3.76,2.856l1.605,19.024l-2.267-2.254l-7.506-14.45
								c0.159,0.846,0.316,1.677,0.47,2.492l5.331,10.263l-4.17-4.146c0.082,0.432,0.163,0.855,0.243,1.272l7.995,7.948l0.423,5.006
								h0.917L66.547,336.561z"/>
						</g>
						<g>
							<path style="fill:#87AD63;" d="M70.169,344.349c0,0,6.171-64.46,31.401-94.32c25.23-29.861,49.733-45.356,64.549-33.554
								c14.816,11.802,8.34,48.374-20.021,78.619c-28.361,30.245-48.047,49.255-48.047,49.255H70.169z"/>
							<path style="fill:#6A9151;" d="M173.634,232.516l-20.959,6.189l14.301-21.469c-0.282-0.258-0.558-0.523-0.858-0.762
								c-0.183-0.146-0.375-0.269-0.561-0.406L144.4,247.83l-1.555-13.534l7.654-21.42c-0.517,0.087-1.039,0.189-1.566,0.309
								l-6.443,18.029l-1.736-15.114c-0.434,0.206-0.869,0.414-1.307,0.637l2.676,23.288l-12.342-17.281
								c-0.367,0.266-0.735,0.536-1.105,0.812l13.769,19.281l0.777,6.761l-22.347,33.547l-3.03-21.581l4.736-33.114
								c-0.526,0.452-1.056,0.922-1.585,1.391l-3.838,26.833l-2.879-20.506c-0.405,0.403-0.809,0.803-1.214,1.214l4.423,31.505
								l-14.206-20.858c-0.308,0.357-0.616,0.717-0.924,1.079l15.561,22.848l1.812,12.905l-18.79,28.207l-1.477-6.144l-1.555-52.14
								c-0.445,0.631-0.882,1.274-1.314,1.925l1.303,43.702L90.131,268.1c-0.318,0.649-0.63,1.303-0.939,1.962l5.135,21.359
								l-10.673-7.827c-0.161,0.449-0.321,0.899-0.478,1.349l11.647,8.542l5.082,21.14l-15.41,23.133l-1.784-8.591l-1.954-36.854
								c-0.402,1.307-0.791,2.611-1.166,3.911l1.275,24.059l-3.381-16.286c-0.262,1.033-0.516,2.058-0.762,3.074l3.291,15.852
								l-6.229-2.3c-0.089,0.46-0.175,0.914-0.26,1.365l6.817,2.517l3.084,14.856l-3.323,4.989h2.197l6.899-10.357l13.738-1.122
								l2.21,4.493c0.332-0.33,0.673-0.669,1.026-1.021l-1.766-3.592l5.829-0.476c0.483-0.486,0.978-0.984,1.486-1.496
								l-10.263,0.838l18.613-9.323c0.948-0.97,1.924-1.971,2.921-2.998L97.8,331.915l-7.631,0.623l14.847-22.288l19.901-3.008
								l4.438,5.478c0.317-0.329,0.637-0.662,0.957-0.996l-3.824-4.72l9.748-1.474c0.509-0.534,1.023-1.075,1.539-1.619
								l-16.15,2.441l25.09-11.938c0.813-0.88,1.611-1.764,2.387-2.654l-32.155,15.299l-10.905,1.648l20.482-30.747l20.835-2.261
								l7.475,8.974c0.281-0.375,0.574-0.749,0.848-1.125l-6.686-8.027l12.887-1.398c0.289-0.491,0.569-0.982,0.848-1.472
								l-23.626,2.564l29.142-13.833c0.258-0.627,0.513-1.253,0.753-1.876l-34.042,16.159l-7.443,0.807l23.972-35.987l10.42-3.077
								l10.148,12.424c0.139-0.566,0.271-1.128,0.393-1.687l-9.115-11.158l10.419-3.077
								C173.727,233.437,173.678,232.978,173.634,232.516z"/>
						</g>
						<g>
							<polygon style="fill:#3C6EA5;" points="50.961,359.831 52.213,365.375 101.311,365.375 103.726,359.205 							"/>
							<polygon style="fill:#3F79C5;" points="37.845,338.337 48.815,361.947 106.99,361.947 133.62,338.337 							"/>
						</g>
					</g>
					<g>
						<g>
							<path style="fill:#6A9151;" d="M451.434,310.652c-0.32-0.017-0.636,0.004-0.95,0.03c0.569-1.195,1.009-2.462,1.285-3.751
								c0.632-2.944,0.615-6.041-0.164-8.958c-0.759-2.844-2.668-5.316-5.856-5.275c-0.404,0.005-0.806,0.051-1.201,0.132
								c0.652-1.688,1.132-3.454,1.533-5.177c0.713-3.068,1.105-6.216,1.126-9.366c0.018-2.588-0.519-5.722-3.396-6.57
								c-1.6-0.471-2.918-0.059-4.081,0.721c0.104-2.14-0.345-4.312-1.625-6.017c-1.682-2.239-4.754-3.541-7.501-2.735
								c-3.022,0.887-4.581,3.966-6.003,6.518c-1.789,3.21-3.304,6.57-4.52,10.039c-0.59,1.681-1.091,3.388-1.535,5.109
								c-1.197-0.41-2.569-0.427-3.82-0.065c-3.066,0.887-4.95,3.533-6.264,6.278c-1.57,3.28-2.817,6.738-3.835,10.226
								c-0.538,1.844-1.045,3.736-1.451,5.646c-1.387-0.476-3.168-0.19-4.336,0.577c-2.726,1.789-3.113,5.415-3.583,8.359
								c-0.58,3.626-0.885,7.296-0.913,10.969c-0.014,1.909,0.045,3.818,0.192,5.722c0.068,0.879,0.151,1.756,0.25,2.632
								c0.104,0.922,0.071,1.874,0.694,2.599c0.511,0.594,1.587,0.526,1.973-0.161c0.312,0.084,0.63,0.156,0.948,0.222
								c1.156,0.24,2.332,0.409,3.499,0.588c2.197,0.338,4.401,0.637,6.608,0.903c4.588,0.553,9.204,0.942,13.828,0.939
								c8.476-0.005,17.04-1.338,24.771-4.932c0.677-0.315,0.797-0.771,0.617-1.17c1.138-1.024,2.021-2.457,2.853-3.691
								c0.992-1.471,1.873-3.021,2.679-4.601c0.824-1.617,1.549-3.282,2.187-4.98c0.598-1.594,1.206-3.271,1.25-4.992
								C456.773,313.259,454.609,310.819,451.434,310.652z"/>
							<path style="fill:#2F594F;" d="M441.932,320.641c-0.387-2.66-1.902-5.272-4.675-5.96c-0.663-0.164-1.553-0.154-2.422,0.033
								c-0.163-2.176-0.398-4.35-0.765-6.492c-0.484-2.826-1.662-5.747-4.415-7.048c-0.907-0.429-2.24-0.61-3.465-0.421
								c-0.141-1.348-0.341-2.69-0.613-4.018c-0.496-2.427-1.057-5.355-2.678-7.323c-1.622-1.969-4.305-2.238-6.349-0.732
								c-2.072,1.526-3.34,4.23-4.299,6.545c-0.453,1.094-0.83,2.218-1.133,3.363c-1.104-1.97-2.858-3.523-5.061-4.166
								c-2.503-0.73-5.032,0.113-6.778,1.996c-1.805,1.946-2.738,4.732-3.284,7.276c-0.332,1.546-0.529,3.12-0.567,4.7
								c-0.057-0.044-0.108-0.093-0.167-0.134c-2.883-2.011-6.308,0.296-6.828,3.422c-0.303,1.819,0.076,3.712,0.411,5.505
								c0.364,1.949,0.863,3.872,1.497,5.751c1.198,3.552,2.854,6.989,5.156,9.957c-0.134,0.256-0.116,0.558,0.21,0.807
								c1.424,1.09,3.466,1.538,5.135,2.141c1.834,0.663,3.675,1.308,5.515,1.956c3.534,1.244,7.065,2.505,10.655,3.582
								c3.59,1.077,7.252,1.967,10.981,2.394c3.576,0.409,7.624,0.692,11.143-0.237c0.986-0.26,1.188-1.11,0.79-1.66
								c0.456-1.65,0.641-3.355,0.865-5.051c0.247-1.878,0.49-3.756,0.676-5.64C441.801,327.779,442.429,324.054,441.932,320.641z"
								/>
							<g>
								<polygon style="fill:#E3AA66;" points="402.079,357.148 403.465,365.375 439.009,365.375 440.883,357.148 								"/>
								<path style="fill:#FFC564;" d="M391.056,328.277c0.359,12.899,4.225,24.143,10.436,31.847l39.987-0.039
									c7.485-6.257,11.58-16.596,12.64-30.594L391.056,328.277z"/>
							</g>
						</g>
						<g>
							<g>
								<path style="fill:#6A9151;" d="M397.62,287.874c0,0,25.032-28.82,31.286-41.781c6.255-12.961,17.848-33.289,5.912-35.68
									c-11.936-2.392-33.786,41.741-38.352,53.089c-4.566,11.348-10.984,28.804-10.984,28.804L397.62,287.874z"/>
								<path style="fill:#87AD63;" d="M436.686,211.024l-10.165,16.31l0.957-9.602l5.363-7.312
									c-0.368,0.066-0.743,0.164-1.124,0.297l-4.096,5.585l0.342-3.432c-0.265,0.204-0.531,0.42-0.8,0.645l-1.169,11.732
									l-5.059-5.098c-0.152,0.19-0.303,0.385-0.455,0.579l5.42,5.462l-0.254,2.548l-11.004,17.656l0.232-9.536l3.1-12.764
									c-0.385,0.541-0.77,1.093-1.154,1.653l-1.863,7.668l0.123-5.074c-0.254,0.388-0.507,0.779-0.76,1.173l-0.292,12.017
									l-3.182-6.37c-0.148,0.25-0.295,0.501-0.442,0.752l3.586,7.179l-0.11,4.524l-7.641,12.261l0.27-10.798l2.252-10.316
									c-0.415,0.731-0.824,1.462-1.227,2.19l-0.928,4.253l0.067-2.684c-0.258,0.475-0.514,0.947-0.767,1.418l-0.237,9.515
									l-3.57-2.162c-0.11,0.221-0.219,0.44-0.327,0.658l3.875,2.347l-0.17,6.802l-7.863,12.617l-0.157-2.732l2.103-14.46
									c-0.383,0.814-0.744,1.592-1.078,2.326l-1.235,8.488l-0.289-5.032c-0.182,0.43-0.347,0.831-0.494,1.196
									c-0.049,0.121-0.099,0.247-0.148,0.37l0.627,10.921l-10.754,17.255l1.395-0.509l13.612-21.841l4.529-1.261l4.697,4.027
									c0.152-0.19,0.304-0.38,0.457-0.572l-4.306-3.691l9.203-2.562c0.246-0.321,0.492-0.643,0.737-0.965l-3.541,0.986
									l5.799-3.989c0.397-0.536,0.79-1.069,1.178-1.601l-0.045-0.066l-9.1,6.259l-9.035,2.516l7.74-12.419l8.908-1.827
									l3.476,2.832c0.142-0.201,0.282-0.4,0.422-0.6l-2.973-2.421l5.37-1.102c0.191-0.29,0.379-0.578,0.562-0.862l-9.756,2.001
									l13.512-8.543c0.199-0.41,0.402-0.827,0.61-1.251l-16.147,10.209l-3.45,0.708l10.105-16.214l7.29-1.12l3.546,3.698
									c0.115-0.232,0.229-0.463,0.345-0.697l-3.008-3.137l4.92-0.756c0.129-0.266,0.257-0.532,0.385-0.799l-8.478,1.303
									l10.877-6.521c0.166-0.382,0.328-0.763,0.488-1.144l-13.275,7.958l-2.578,0.396l10.741-17.235l2.63-0.662l4.84,3.082
									c0.072-0.244,0.147-0.49,0.213-0.731l-4.078-2.596l4.859-1.222c0.032-0.261,0.06-0.521,0.08-0.774l-7.988,2.009l5.523-8.861
									C437.236,211.312,436.971,211.16,436.686,211.024z"/>
							</g>
							<g>
								<path style="fill:#6A9151;" d="M367.73,288.144c0,0-12.492-67.472-15.785-94.266c-3.294-26.795-3.294-49.747,12.685-51.502
									c15.978-1.755,14.367,36.786,14.1,54.262c-0.268,17.476,1.812,91.506,1.812,91.506H367.73z"/>
								<path style="fill:#87AD63;" d="M373.777,278.24l6.338-5.979c-0.009-0.333-0.018-0.672-0.026-1.012l-3.466,3.27l3.265-11.123
									c-0.02-0.79-0.04-1.591-0.06-2.401l-4.263,14.523l-1.865,1.759l-1.727-21.623l4.09-5.018l3.594,3.399
									c-0.009-0.353-0.017-0.706-0.026-1.061l-3.091-2.923l2.937-3.603c-0.009-0.384-0.018-0.767-0.027-1.151l-4.259,5.224
									l4.04-15.069c-0.019-0.879-0.037-1.755-0.056-2.628l-5.117,19.087l-2.173,2.665l-2.408-30.154l4.379-4.901l5.145,4.576
									c-0.006-0.344-0.013-0.685-0.019-1.026l-4.624-4.112l4.471-5.004c-0.006-0.372-0.011-0.742-0.016-1.108l-6.414,7.179
									l6.316-16.439c-0.004-0.705-0.007-1.385-0.009-2.031l-7.691,20.02l-1.62,1.813l-2.434-30.481l6.212-6.223l5.636,5.384
									c0.006-0.337,0.012-0.679,0.018-1.025l-5.121-4.892l5.184-5.193c-0.003-0.35-0.007-0.701-0.011-1.054l-7.665,7.679
									l7.275-18.029c-0.038-0.557-0.078-1.114-0.123-1.667l-8.487,21.035l-2.994,2.999l-2.497-31.267l2.76-2.321l10.484,2.96
									c-0.041-0.281-0.085-0.559-0.128-0.837l-9.643-2.722l7.47-6.283c-0.092-0.255-0.185-0.505-0.282-0.752l-5.487,4.615
									l0.487-11.683c-0.232-0.154-0.469-0.299-0.714-0.427l-0.531,12.748l-4.489,3.775l-1.363-17.066
									c-0.306,0.068-0.606,0.144-0.899,0.229l1.866,23.369l-6.846-9.534l0.53-11.521c-0.263,0.213-0.517,0.437-0.763,0.672
									l-0.455,9.891l-3.208-4.468c-0.116,0.265-0.229,0.535-0.337,0.811l6.985,9.727l-9.251,0.583
									c-0.025,0.255-0.044,0.52-0.066,0.779l9.85-0.62l3.677,5.121l2.493,31.228l-6.892-6.142l-9.415-23.276
									c-0.006,0.648-0.006,1.304,0.001,1.967l8.171,20.2l-7.404-6.598c0.034,0.367,0.068,0.733,0.104,1.103l11.672,10.401
									l-10.349,0.917c0.034,0.253,0.068,0.508,0.103,0.766l11.037-0.978l3.06,2.727l2.563,32.104l-6.155-5.365l-9.386-20.687
									c0.131,0.878,0.266,1.772,0.405,2.681l7.639,16.836l-5.775-5.034c0.063,0.388,0.126,0.776,0.19,1.167l9.012,7.856
									l-7.242,2.815c0.043,0.257,0.087,0.515,0.13,0.772l7.765-3.018l3.503,3.054l2.182,27.329l-2.152-1.727l-9.695-16.238
									c0.117,0.681,0.235,1.361,0.352,2.039l7.681,12.866l-6.326-5.078c0.066,0.378,0.132,0.754,0.198,1.129l5.533,4.441
									l-4.515,1.332c0.045,0.255,0.09,0.51,0.135,0.763l5.112-1.508l3.76,3.018l1.605,20.104l-2.267-2.382l-7.506-15.27
									c0.159,0.894,0.316,1.772,0.47,2.633l5.331,10.846l-4.17-4.382c0.082,0.456,0.163,0.904,0.243,1.344l7.995,8.4l0.423,5.29
									h0.917L373.777,278.24z"/>
							</g>
							<g>
								<path style="fill:#87AD63;" d="M392.041,292.531c3.535-11.932,15.339-51.89,23.016-79.332
									c9.116-32.586,11.444-55.474,5.819-56.444s-10.474,3.879-19.979,26.379c-8.632,20.436-22.544,95.75-25.024,109.397H392.041z
									"/>
								<path style="fill:#6A9151;" d="M423.662,171.328l-3.631,2.809l3.867-7.208c0.011-0.54,0.014-1.062,0.008-1.563l-5.295,9.869
									l-3.821,2.956l5.819-21.474c-0.311-0.044-0.62-0.069-0.927-0.073l-4.554,16.808l-1.403-4.702l2.168-10.981
									c-0.287,0.181-0.575,0.384-0.867,0.615l-1.749,8.862l-1.572-5.267c-0.178,0.242-0.357,0.491-0.538,0.751l2.61,8.745
									l-7.254-0.695c-0.114,0.227-0.232,0.468-0.348,0.702l7.828,0.749l0.764,2.559l-9.493,35.034l-2.315-10.332l0.626-22.519
									c-0.256,0.567-0.516,1.15-0.779,1.746l-0.497,17.872l-2.431-10.848c-0.153,0.415-0.307,0.844-0.462,1.287l4.528,20.208
									L395,201.874c-0.065,0.244-0.129,0.49-0.194,0.736l9.357,5.614l0.699,3.117l-7.829,28.895l-1.728-5.281l0.002,0
									l-1.681-27.751c-0.196,0.78-0.393,1.571-0.589,2.369l1.372,22.641l-3.912-11.958c-0.106,0.459-0.211,0.92-0.317,1.382
									l5.322,16.269l-8.686-1.005c-0.051,0.239-0.102,0.479-0.153,0.719l9.09,1.052l0.932,2.848l-6.868,25.347l-1.719-5.301
									l-2.067-20.959c-0.168,0.796-0.334,1.591-0.5,2.385l1.51,15.315l-2.856-8.806c-0.1,0.486-0.199,0.972-0.297,1.455
									l3.88,11.963l-6.397,0.613c-0.049,0.251-0.098,0.5-0.147,0.749l6.775-0.65l1.468,4.527l-4.947,18.257l-2.083-3.036
									l-2.445-12.774c-0.126,0.654-0.251,1.301-0.373,1.937l1.786,9.333l-2.792-4.069c-0.065,0.342-0.129,0.68-0.192,1.014
									l1.499,2.184l-1.977,0.351c-0.048,0.257-0.097,0.517-0.144,0.768l2.575-0.457l3.895,5.678l-1.405,5.186h0.947l2.129-7.857
									l8.116-6.463l1.578,2.164c0.086-0.292,0.172-0.585,0.26-0.884l-1.266-1.736l2.321-1.848
									c0.119-0.404,0.237-0.807,0.359-1.219l-5.411,4.309l7.357-10.939c0.225-0.766,0.451-1.54,0.681-2.324l-9.938,14.776
									l-3.735,2.974l7.74-28.566l1.855-1.544l6.26,4.897c0.073-0.251,0.147-0.504,0.221-0.756l-5.905-4.619l9.561-7.956
									c0.121-0.418,0.242-0.835,0.363-1.254l-6.857,5.706l10.79-19.367c0.296-1.034,0.591-2.064,0.882-3.086l-13.233,23.752
									l-3.603,2.999l10.005-36.925l2.673-2.144l6.116,5.432c0.074-0.261,0.148-0.522,0.221-0.781l-5.758-5.114l9.209-7.387
									c0.105-0.398,0.205-0.791,0.308-1.185l-5.374,4.311l7.435-12.67c0.186-0.799,0.367-1.588,0.543-2.368l-9.579,16.322
									l-5.469,4.387l9.809-36.202l2.07-1.602l5.739,4.133c0.045-0.268,0.091-0.539,0.134-0.803l-5.27-3.796l6.423-4.969
									C423.601,171.992,423.635,171.652,423.662,171.328z"/>
							</g>
							<g>
								<polygon style="fill:#D4554C;" points="361.915,354.501 363.167,365.375 396.682,365.375 399.276,354.336 								"/>
								<polygon style="fill:#DD6D6B;" points="352.047,283.34 416.536,283.34 400.72,356.558 360.156,356.558 								"/>
							</g>
						</g>
						<g>
							<path style="fill:#6A9151;" d="M363.079,302.682c-0.59-1.156-1.665-2.163-2.898-2.667c0.435-1.092,0.702-2.331,0.962-3.259
								c0.526-1.88,0.917-3.8,1.181-5.734c0.488-3.571,0.702-7.493-0.114-11.035c-0.752-3.264-3.381-5.59-6.806-5.539
								c-1.219,0.018-2.35,0.381-3.294,0.997c0.129-1.824,0.258-3.649,0.379-5.474c0.254-3.852,0.654-7.727,0.697-11.588
								c0.065-5.762-1.859-13.017-8.374-14.402c-1.447-0.308-3.527-0.269-5.184,0.392c0.066-2.639-1.087-5.263-3.28-6.88
								c-2.856-2.107-6.864-2.305-9.925-0.538c-3.231,1.865-5.381,5.425-6.969,8.696c-1.445,2.977-2.449,6.242-2.855,9.55
								c-1.665-0.791-3.738-0.805-5.481-0.192c-3.348,1.179-5.021,4.658-5.901,7.857c-1.129,4.105-1.654,8.4-1.651,12.653
								c0.001,2.191,0.138,4.389,0.441,6.561c0.037,0.267,0.074,0.537,0.113,0.808c-1.013-0.595-2.197-0.921-3.436-0.86
								c-3.946,0.194-6.125,3.442-6.098,7.163c0.015,2.071,0.455,4.146,0.822,6.176c0.397,2.201,0.844,4.392,1.357,6.569
								c1.056,4.488,2.352,8.929,3.924,13.263c0.859,2.367,1.791,4.709,2.795,7.018c0.896,2.063,1.836,4.227,3.104,6.111
								c-0.231,0.296-0.182,0.74,0.272,0.945c1.882,0.852,4.302,0.898,6.332,1.133c2.052,0.237,4.106,0.448,6.163,0.64
								c4.245,0.397,8.501,0.674,12.761,0.859c8.559,0.371,17.127,0.344,25.683-0.091c0.676,0.147,1.488-0.069,1.732-0.722
								c1.165-3.123,1.975-6.465,2.75-9.704c0.766-3.2,1.369-6.453,1.623-9.736C364.121,308.804,364.423,305.318,363.079,302.682z"
								/>
							<path style="fill:#2F594F;" d="M368.586,305.872c-1.197-0.012-2.325,0.261-3.373,0.733c1.853-4.518,2.036-9.898,0.047-14.181
								c-1.495-3.219-4.656-4.9-8.131-3.777c-1.17,0.378-2.158,0.996-3.01,1.768c0.162-2.168,0.193-4.344,0.117-6.48
								c-0.134-3.794-0.174-8.693-3.203-11.453c-2.826-2.575-6.652-1.713-9.028,0.956c-1.256,1.411-2.11,3.14-2.969,4.806
								c-1.047,2.031-2.033,4.093-2.961,6.18c-1.044,2.349-2.015,4.731-2.906,7.142c-0.42,1.138-0.809,2.287-1.184,3.44
								c-0.122,0.376-0.267,0.768-0.401,1.168c-1.629-1.391-3.632-2.277-5.85-1.708c-3.253,0.836-4.667,4.014-5.281,7.021
								c-1.432,7.012-1.341,14.327,0.171,21.317c0.893,4.127,2.274,8.049,4.275,11.766c0.261,0.484,1.109,0.581,1.57,0.335
								c5.325,0.233,10.702-0.253,16.025-0.507c5.542-0.266,11.103-0.417,16.637-0.793c0.152-0.01,0.316-0.036,0.479-0.081
								c0.314,0.031,0.635-0.026,0.845-0.191c1.626-1.285,2.993-3.021,4.32-4.603c1.381-1.646,2.705-3.347,3.926-5.116
								c1.219-1.766,2.363-3.584,3.428-5.447c0.991-1.732,1.982-3.51,2.242-5.52C374.849,308.962,372.325,305.912,368.586,305.872z"
								/>
							<g>
								<polygon style="fill:#E4AD6B;" points="313.246,357.774 315.5,365.375 356.906,365.375 359.321,357.953 								"/>
								<path style="fill:#FFCB73;" d="M299.585,322.39h75.962c-0.052,16.512-4.435,29.899-16.051,38.064h-46.967
									C303.556,349.191,299.241,336.503,299.585,322.39z"/>
							</g>
						</g>
					</g>
				</g>
			</g>
		</g>
		<g>
			<g>
				<g>
					<path style="fill:#FFCB73;" d="M372.506,78.547c1.013-2.873-0.336-5.986-3.015-6.955c-2.024-0.732-4.226-0.027-5.62,1.599
						l-6.353-0.456l-0.667,3.542l5.704,1.677c0.312,1.823,1.496,3.4,3.264,4.04C368.499,82.964,371.492,81.42,372.506,78.547z"/>
					<path style="fill:#E3AA66;" d="M368.484,79.583c0.033-0.023,0.049-0.066,0.038-0.105l-0.285-1.071l0.596-0.549
						c0.031-0.029,0.04-0.076,0.022-0.114l-0.464-0.955l0.729-0.444c0.039-0.024,0.056-0.075,0.039-0.118l-0.298-0.758l0.615-0.816
						c0.023-0.03,0.026-0.072,0.009-0.104c-0.018-0.033-0.053-0.05-0.088-0.043l-2.115,0.386l-8.068-0.981l-0.026,0.184l8.081,0.982
						c0.008,0.001,0.017,0.001,0.025-0.001l1.907-0.348l-0.506,0.672c-0.02,0.027-0.025,0.064-0.013,0.094l0.288,0.733l-0.734,0.448
						c-0.042,0.025-0.058,0.081-0.037,0.125l0.471,0.969l-0.586,0.54c-0.026,0.025-0.038,0.063-0.028,0.097l0.218,0.821
						l-1.048-0.969c-0.009-0.008-0.019-0.014-0.03-0.018l-8.416-2.795l-0.058,0.177l8.399,2.79l1.26,1.164
						C368.408,79.603,368.451,79.606,368.484,79.583z"/>
					<path style="fill:#E3AA66;" d="M360.632,75.344l-0.045,0.181l6.658,1.625c0.045,0.011,0.092-0.018,0.106-0.066l0.262-0.889
						c0.008-0.025,0.004-0.052-0.008-0.075c-0.013-0.022-0.034-0.037-0.059-0.041l-6.967-1.177l-0.034,0.183l6.871,1.161
						l-0.207,0.704L360.632,75.344z"/>
					<g>
						<polygon style="fill:#8782BF;" points="362.457,72.826 361.582,78.018 356.295,76.463 357.134,72.401 						"/>
						<g>
							<polygon style="fill:#51518C;" points="358.69,72.525 358.236,77.034 358.491,77.109 358.95,72.546 							"/>
							<polygon style="fill:#51518C;" points="357.037,76.681 358.449,72.506 358.181,72.484 356.787,76.608 							"/>
							<polygon style="fill:#51518C;" points="361.324,72.735 361.064,72.715 360.771,77.779 361.028,77.855 							"/>
							<polygon style="fill:#51518C;" points="360.82,72.695 360.55,72.674 358.876,77.222 359.127,77.296 							"/>
						</g>
					</g>
				</g>
				<g>
					<g>
						<path style="fill:#FFCB73;" d="M389.265,72.949c1.018-2.081,0.236-4.555-1.747-5.524c-1.983-0.97-4.415-0.068-5.433,2.013
							c-0.605,1.237-0.574,2.612-0.034,3.727l-1.505,3.222l1.68,1.205l2.879-2.263C386.761,75.507,388.458,74.599,389.265,72.949z"
							/>
						<g>
							<polygon style="fill:#E3AA66;" points="387.104,72.106 386.699,71.332 385.695,71.23 385.243,70.326 384.54,70.327 
								383.763,69.252 383.808,71.121 380.771,76.879 380.864,76.928 383.907,71.158 383.913,71.146 383.876,69.588 384.486,70.432 
								385.178,70.432 385.627,71.329 386.632,71.431 387.033,72.195 388.07,72.477 386.557,73.021 386.546,73.024 381.746,77.634 
								381.818,77.709 386.603,73.116 388.42,72.463 							"/>
							<polygon style="fill:#E3AA66;" points="381.198,76.919 381.285,76.977 384.646,71.882 385.547,72.429 381.544,77.187 
								381.625,77.255 385.706,72.403 384.614,71.74 							"/>
						</g>
					</g>
					<g>
						<polygon style="fill:#8782BF;" points="381.287,74.56 384.023,76.422 380.818,79.35 379.082,77.969 						"/>
						<g>
							<polygon style="fill:#51518C;" points="379.877,76.74 382.27,78.024 382.451,77.858 380.003,76.545 							"/>
							<polygon style="fill:#51518C;" points="381.42,78.8 379.685,77.036 379.557,77.235 381.249,78.956 							"/>
							<polygon style="fill:#51518C;" points="380.996,75.009 380.87,75.204 383.733,76.688 383.915,76.521 							"/>
							<polygon style="fill:#51518C;" points="380.702,75.464 380.575,75.66 382.828,77.514 383.001,77.356 							"/>
						</g>
					</g>
				</g>
				<g>
					<path style="fill:#FFCB73;" d="M316.366,75.141c-5.087-5.406-13.337-5.964-18.428-1.247c-3.847,3.564-4.784,9.12-2.819,13.955
						l-8.089,13.244l6.925,5.404l10.009-10.475c4.297,1.363,9.034,0.563,12.396-2.552C321.449,88.753,321.452,80.547,316.366,75.141
						z"/>
					<path style="fill:#E3AA66;" d="M314.111,85.007c-0.012-0.097-0.087-0.179-0.185-0.201l-2.638-0.581l-0.522-1.904
						c-0.028-0.1-0.119-0.172-0.222-0.175l-2.587-0.063l-0.148-2.074c-0.008-0.112-0.1-0.206-0.212-0.217l-1.975-0.202l-1.08-2.243
						c-0.04-0.084-0.126-0.137-0.216-0.136c-0.09,0.002-0.166,0.059-0.192,0.143l-1.529,5.011l-11.143,16.373L291.832,99
						l11.16-16.398c0.011-0.017,0.021-0.035,0.027-0.055l1.378-4.517l0.89,1.848c0.035,0.074,0.109,0.126,0.19,0.134l1.908,0.195
						l0.149,2.09c0.009,0.118,0.11,0.215,0.229,0.219l2.626,0.064l0.514,1.871c0.023,0.085,0.093,0.151,0.179,0.17l2.022,0.446
						l-3.268,1.185c-0.027,0.01-0.052,0.025-0.072,0.045l-15.46,15.098l0.319,0.324l15.43-15.067l3.929-1.425
						C314.07,85.195,314.124,85.104,314.111,85.007z"/>
					<path style="fill:#E3AA66;" d="M296.156,97.269l0.341,0.3l10.962-12.599c0.074-0.086,0.064-0.219-0.024-0.303l-1.633-1.561
						c-0.047-0.045-0.109-0.069-0.171-0.066c-0.062,0.003-0.118,0.032-0.155,0.08L295.137,96.89l0.359,0.278l10.196-13.579
						l1.293,1.235L296.156,97.269z"/>
					<g>
						<polygon style="fill:#8782BF;" points="292.744,90.502 303.007,98.201 293.73,107.91 285.873,101.552 						"/>
						<g>
							<polygon style="fill:#51518C;" points="287.882,98.321 297.137,104.345 297.583,103.878 288.218,97.781 							"/>
							<polygon style="fill:#51518C;" points="295.033,106.546 287.571,98.822 287.225,99.378 294.594,107.006 							"/>
							<polygon style="fill:#51518C;" points="291.281,92.854 290.946,93.394 301.584,99.69 302.035,99.218 							"/>
							<polygon style="fill:#51518C;" points="290.631,93.9 290.283,94.46 298.26,103.169 298.7,102.709 							"/>
						</g>
					</g>
				</g>
				<g>
					<path style="fill:#FFCB73;" d="M278.09,102.038c-3.959-4.829-10.852-5.77-15.395-2.103c-3.433,2.771-4.538,7.38-3.166,11.551
						l-7.549,10.652l5.502,4.932l9.001-8.218c3.528,1.39,7.55,0.991,10.55-1.431C281.576,113.754,282.05,106.867,278.09,102.038z"/>
					<path style="fill:#E3AA66;" d="M275.632,110.189c-0.005-0.082-0.063-0.156-0.144-0.179l-2.181-0.639l-0.329-1.628
						c-0.018-0.085-0.09-0.151-0.176-0.16l-2.167-0.201l-0.005-1.749c0-0.094-0.072-0.179-0.165-0.195l-1.646-0.283l-0.778-1.945
						c-0.029-0.073-0.098-0.122-0.173-0.126c-0.076-0.004-0.143,0.039-0.17,0.109l-1.57,4.118l-10.291,13.103l0.295,0.242
						l10.307-13.123c0.011-0.013,0.019-0.029,0.025-0.045l1.415-3.712l0.641,1.602c0.025,0.064,0.084,0.112,0.151,0.124l1.59,0.273
						l0.005,1.763c0,0.1,0.08,0.187,0.18,0.197l2.2,0.204l0.324,1.6c0.015,0.073,0.069,0.132,0.14,0.153l1.672,0.49l-2.811,0.808
						c-0.023,0.007-0.045,0.018-0.063,0.034l-13.842,11.785l0.249,0.29l13.814-11.762l3.38-0.971
						C275.588,110.345,275.637,110.272,275.632,110.189z"/>
					<path style="fill:#E3AA66;" d="M259.86,119.452l0.269,0.271l9.923-9.946c0.067-0.068,0.066-0.18-0.003-0.256l-1.282-1.404
						c-0.037-0.04-0.087-0.064-0.14-0.065c-0.052-0.001-0.101,0.02-0.135,0.059l-9.466,10.964l0.285,0.254l9.336-10.813l1.014,1.111
						L259.86,119.452z"/>
					<g>
						<polygon style="fill:#8782BF;" points="257.384,113.576 265.556,120.627 257.213,128.244 250.984,122.457 						"/>
						<g>
							<polygon style="fill:#51518C;" points="252.855,119.86 260.277,125.447 260.678,125.08 253.168,119.427 							"/>
							<polygon style="fill:#51518C;" points="258.386,127.174 252.565,120.263 252.243,120.71 257.991,127.535 							"/>
							<polygon style="fill:#51518C;" points="256.021,115.467 255.709,115.901 264.277,121.795 264.682,121.425 							"/>
							<polygon style="fill:#51518C;" points="255.415,116.308 255.091,116.758 261.287,124.525 261.683,124.163 							"/>
						</g>
					</g>
				</g>
				<g>
					<g>
						<path style="fill:#FFCB73;" d="M348.545,84.584c2.108-3.748,0.923-8.414-2.647-10.423c-3.57-2.008-8.174-0.598-10.282,3.15
							c-1.253,2.227-1.342,4.778-0.46,6.903l-3.132,5.809l2.983,2.413l5.575-3.887C343.633,89.056,346.874,87.556,348.545,84.584z"
							/>
						<g>
							<polygon style="fill:#E3AA66;" points="344.631,82.791 343.963,81.315 342.113,81.019 341.373,79.296 340.07,79.222 
								338.744,77.148 338.628,80.615 332.387,90.961 332.554,91.061 338.808,80.694 338.821,80.672 338.918,77.782 339.959,79.411 
								341.241,79.484 341.977,81.195 343.829,81.491 344.489,82.949 346.382,83.582 343.519,84.428 343.499,84.434 334.112,92.462 
								334.239,92.61 343.594,84.609 347.031,83.594 							"/>
							<polygon style="fill:#E3AA66;" points="333.173,91.08 333.329,91.197 340.099,82.115 341.711,83.225 333.787,91.614 
								333.928,91.748 342.009,83.193 340.055,81.848 							"/>
						</g>
					</g>
					<g>
						<polygon style="fill:#8782BF;" points="333.59,86.718 338.461,90.461 332.21,95.544 329.14,92.799 						"/>
						<g>
							<polygon style="fill:#51518C;" points="330.744,90.607 335.042,93.241 335.395,92.954 330.999,90.259 							"/>
							<polygon style="fill:#51518C;" points="333.385,94.589 330.358,91.134 330.099,91.489 333.051,94.86 							"/>
							<polygon style="fill:#51518C;" points="333.004,87.519 332.749,87.867 337.895,90.922 338.25,90.633 							"/>
							<polygon style="fill:#51518C;" points="332.41,88.331 332.154,88.68 336.131,92.356 336.467,92.082 							"/>
						</g>
					</g>
				</g>
				<g>
					<g>
						<path style="fill:#FFCB73;" d="M251.322,138.057c0.535-4.474-2.486-8.513-6.748-9.023c-4.261-0.51-8.15,2.704-8.685,7.178
							c-0.318,2.658,0.62,5.163,2.327,6.865l-0.698,6.879l3.856,1.137l3.834-6C248.364,144.357,250.898,141.605,251.322,138.057z"/>
						<g>
							<polygon style="fill:#E3AA66;" points="246.815,137.894 245.575,136.734 243.666,137.19 242.257,135.82 240.966,136.271 
								238.851,134.797 240.131,138.199 238.246,150.717 238.448,150.747 240.337,138.203 240.341,138.177 239.273,135.341 
								240.935,136.499 242.205,136.055 243.604,137.415 245.515,136.958 246.74,138.104 248.826,137.956 246.395,139.925 
								246.379,139.939 240.519,151.477 240.701,151.57 246.541,140.07 249.459,137.707 							"/>
							<polygon style="fill:#E3AA66;" points="239.055,150.517 239.253,150.567 242.157,139.06 244.163,139.486 239.863,150.787 
								240.054,150.859 244.438,139.336 242.007,138.819 							"/>
						</g>
					</g>
					<g>
						<polygon style="fill:#8782BF;" points="237.707,146.128 243.924,147.794 239.916,155.224 235.843,153.8 						"/>
						<g>
							<polygon style="fill:#51518C;" points="236.515,151.035 241.732,151.858 241.958,151.438 236.621,150.596 							"/>
							<polygon style="fill:#51518C;" points="240.669,153.827 236.353,151.7 236.244,152.148 240.456,154.223 							"/>
							<polygon style="fill:#51518C;" points="237.461,147.139 237.355,147.578 243.561,148.467 243.789,148.045 							"/>
							<polygon style="fill:#51518C;" points="237.212,148.163 237.105,148.604 242.43,150.564 242.646,150.164 							"/>
						</g>
					</g>
				</g>
			</g>
			<g>
				<ellipse style="opacity:0.85;fill:#6B6BAF;" cx="180.588" cy="413.172" rx="132.658" ry="12.015"/>
				<g>
					<g>
						<g>
							<g>
								<path style="fill:#D57141;" d="M230.604,194.303c0,0,4.787-5.894,5.286-15.48c0.499-9.586-8.921-18.231-20.503-17.178
									c-11.581,1.053-17.954,10.085-17.677,17.973c0.053,1.498,0.326,3.284,0.733,5.195c0.163,0.765,0.266,1.545,0.281,2.327
									c0.032,1.689-0.137,3.289-0.59,4.762c0,0-2.128,0.594-2.418,1.84c-0.256,1.098,4.548,1.455,5.695,1.524
									c1.534,4.578,2.96,8.131,2.96,8.131c3.896-0.941,10.628-2.632,10.628-2.632l3.824,10.805l18.619-4.433L230.604,194.303z"/>
								<path style="fill:#BF583A;" d="M217.99,209.218c0.505-0.619,1.086-1.416,1.664-2.468c2.078-3.782,2.369-8.423,2.369-8.423
									L215,200.766L217.99,209.218z"/>
							</g>
							<g>
								<path style="fill:#FFFFFF;" d="M204.49,197.482c-0.561-1.226,1.746-1.593,2.499-2.618c0.752-1.025,1.999-3.325,3.384-1.884
									c1.385,1.441-0.494,3.713-2.325,4.502C206.217,198.272,204.813,198.189,204.49,197.482z"/>
								<g>
									<path style="fill:#01265A;" d="M203.134,184.205c0,0,0.042,2.368,1.268,2.513c1.226,0.145,0.332-2.797,0.332-2.797
										L203.134,184.205z"/>
									<path style="fill:#01265A;" d="M205.406,183.526c-1.846-0.207-3.139,0.794-3.193,0.836l0.526,0.668
										c0.01-0.008,1.085-0.84,2.571-0.66c1.53,0.175,3.098,1.594,3.114,1.609l0.574-0.626
										C208.925,185.287,207.213,183.732,205.406,183.526z"/>
								</g>
								<path style="fill:#01265A;" d="M200.093,182.86l1.552,0.499c1.832-2.379,3.96-3.839,6.289-4.675l-0.665-1.192
									C204.497,178.563,201.807,180.46,200.093,182.86z"/>
							</g>
						</g>
						<path style="fill:#01265A;" d="M242.567,174.548c0.311-0.502,0.539-1.043,0.665-1.488c0.537-1.904,0.058-3.92-0.568-5.74
							c-1.121-3.257-3.123-6.518-6.507-7.759c-1.696-0.622-3.558-0.703-5.226,0.011c-0.179-2.563-2.331-4.79-4.742-5.771
							c-1.621-0.66-3.397-0.895-5.136-0.724c-0.891,0.087-1.758,0.281-2.601,0.583c-0.458,0.164-0.943,0.366-1.389,0.621
							c-0.109-0.402-0.242-0.792-0.39-1.159c-0.586-1.451-1.556-2.863-2.892-3.717c-1.434-0.917-3.049-0.964-4.592-0.275
							c-1.45,0.647-2.871,1.617-4.046,2.714c-0.306-0.255-0.646-0.47-0.995-0.633c-1.104-0.516-2.355-0.533-3.504-0.157
							c-2.086,0.683-3.465,2.513-3.921,4.58c-0.733-0.364-1.536-0.573-2.363-0.557c-1.051,0.021-2.084,0.385-2.835,1.136
							c-0.709,0.709-1.095,1.705-1.166,2.696c-0.063,0.877,0.118,1.724,0.418,2.534c-2.121,1.111-3.509,3.505-3.505,5.903
							c0.005,2.738,1.855,5.36,4.395,6.351c0.52,0.203,1.068,0.339,1.623,0.349c0.019,0.106,0.043,0.212,0.06,0.317
							c0.051,0.305,0.113,0.591,0.226,0.88c0.202,0.513,0.496,0.972,0.905,1.344c0.879,0.799,2.123,0.873,3.175,0.38
							c1.019-0.478,1.837-1.349,2.487-2.25c0.303-0.42,0.567-0.87,0.787-1.339c0.848,1.027,1.958,1.86,3.21,2.313
							c1.395,0.505,2.923,0.59,4.372,0.277c0.292-0.063,0.579-0.153,0.865-0.247c-0.146,1.364,0.282,2.795,1.259,3.783
							c0.568,0.575,1.35,0.918,2.163,0.737c0.769-0.171,1.115-0.673,1.241-1.379c0.039,0.075,0.081,0.15,0.113,0.212
							c0.174,0.339,0.397,0.64,0.667,0.909c0.541,0.54,1.238,0.923,1.991,1.068c0.795,0.153,1.638,0.045,2.37-0.302
							c0.006-0.003,0.014-0.007,0.02-0.01c-0.092,0.368-0.128,0.752-0.103,1.131c0.05,0.765,0.327,1.512,0.823,2.101
							c0.452,0.538,1.047,0.915,1.7,1.155c-0.488,0.8-0.705,1.793-0.704,2.704c0.002,1.26,0.404,2.529,1.184,3.524
							c0.764,0.975,1.845,1.657,3.02,2.021c-0.276,0.532-0.251,1.219,0.033,1.778c0.524,1.031,1.716,1.446,2.798,1.555
							c0.655,0.066,1.324,0.06,1.988,0.001c0.131,0.207,0.275,0.398,0.419,0.553c0.556,0.6,1.272,1.032,2.073,1.211
							c0.953,0.213,1.953,0.025,2.66-0.673c0.311-0.307,0.545-0.675,0.712-1.079c0.025-0.061,0.05-0.126,0.076-0.189
							c0.745,0.154,1.594,0.065,2.258-0.16c0.854-0.289,1.627-0.942,1.864-1.837c0.262-0.99-0.046-1.992-0.521-2.865
							c-0.153-0.281-0.327-0.547-0.513-0.804c0.489-0.085,0.968-0.234,1.413-0.454c1.036-0.513,1.861-1.372,2.353-2.415
							c0.471-0.998,0.533-2.13,0.266-3.193c-0.092-0.365-0.244-0.774-0.453-1.16c0.387-0.124,0.756-0.313,1.088-0.545
							c0.989-0.689,1.572-1.774,1.704-2.961C245.588,177.9,244.269,175.896,242.567,174.548z"/>
						<g>
							<path style="fill:#D57141;" d="M215.548,183.219c0,0-0.961-5.765,5.159-6.777c6.119-1.012,7.525,7.788,6.413,10.974
								c-1.113,3.186-4.774,4.956-6.984,5.209c-2.21,0.253-2.745-0.354-2.745-0.354L215.548,183.219z"/>
							<path style="fill:#BF583A;" d="M222.222,183.323c-1.103-0.586-2.337-0.371-3.119-0.121c0.034-0.14,0.066-0.278,0.103-0.421
								c0.863-3.327,3.673-4.071,3.792-4.101l-0.204-0.825c-0.139,0.034-3.416,0.88-4.41,4.711c-0.95,3.658-0.742,6.188-0.733,6.295
								l0.846-0.074c-0.002-0.021-0.147-1.857,0.389-4.597c0.466-0.204,1.827-0.706,2.937-0.117
								c1.081,0.574,1.192,3.398,1.146,4.342l0.849,0.042C223.84,188.03,223.976,184.254,222.222,183.323z"/>
						</g>
					</g>
					<g>
						<g>
							<polygon style="fill:#D57141;" points="149.557,378.918 142.409,387.618 138.973,402.08 123.513,396.705 116.088,381.134 
								127.503,379.583 138.197,370.163 							"/>
							<polygon style="fill:#BF583A;" points="138.197,370.163 133.62,374.195 133.875,384.537 141.922,389.666 142.409,387.618 
								149.557,378.918 							"/>
						</g>
						<g>
							<polygon style="fill:#01265A;" points="143.358,391.96 138.567,407.991 136.289,412.06 83.233,375.521 87.779,373.013 
								110.791,379.81 124.21,379.737 131.172,390.969 							"/>
							<polygon style="fill:#FFCB73;" points="127.17,402.103 88.943,373.357 87.779,373.013 87.371,373.238 126.693,402.808 
								138.359,408.361 138.567,407.991 138.69,407.579 							"/>
							<g>
								<path style="fill:#FFCB73;" d="M102.935,384.187c0.013-0.065,0.334-1.599,0.278-3.949c-0.02-0.84-0.217-1.845-0.464-2.803
									l-0.958-0.283c0.295,1.048,0.551,2.197,0.573,3.105c0.053,2.243-0.257,3.737-0.26,3.752L102.935,384.187z"/>
								<path style="fill:#FFCB73;" d="M133.932,395.518c-6.254,1.676-9.295,4.926-9.422,5.064l0.625,0.575
									c0.029-0.032,3.017-3.21,9.016-4.818c3.686-0.988,6.548-1.139,8.228-1.107l0.254-0.849
									C140.93,394.329,137.914,394.453,133.932,395.518z"/>
							</g>
						</g>
						<g>
							<path style="fill:#87AD63;" d="M229.792,295.094l-57.12,9.515l-29.145,52.594l-6.56,3.899l-0.703,2.667l-3.663,1.517
								l4.884,14.562l9.147,4.69l3.6-5.141l10.965-2.162l2.214-9.676c0,0,25.636-14.701,31.991-27.743
								c6.355-13.041,7.02-19.011,7.02-19.011l39.676,6.191L229.792,295.094z"/>
							<g>
								<path style="fill:#6A9151;" d="M155.265,365.342c0,0,3.643,3.24,7.569,4.738l0.577-2.521c0,0,1.838-1.056,4.639-2.841
									L155.265,365.342z"/>
								<path style="fill:#6A9151;" d="M143.527,357.203l-1.231,0.732c0.083,0.409,0.176,0.83,0.279,1.257
									c0.831,3.436,2.771,5.32,2.771,5.32l0.752-11.948L143.527,357.203z"/>
								<path style="fill:#6A9151;" d="M199.03,300.219l-25.143,4.188l-2.347,2.244l-10.796,19.481l13.431,34.489
									c7.814-5.48,17.621-13.409,21.225-20.806c6.355-13.041,7.02-19.011,7.02-19.011l7.285,1.137L199.03,300.219z"/>
								<path style="fill:#6A9151;" d="M152.895,378.87l-2.008-14.36c0,0-2.216,3.713-3.602,10.584
									c-0.759,3.767-0.326,6.494,0.219,8.196l2.727-3.894L152.895,378.87z"/>
								<path style="fill:#6A9151;" d="M134.916,364.327c0.556,0.972,1.271,2.127,2.118,3.287c2.106,2.882,4.1,3.99,4.1,3.99
									l-4.156-10.509l-0.012,0.007l-0.703,2.667L134.916,364.327z"/>
							</g>
						</g>
					</g>
					<g>
						<g>
							<path style="fill:#D57141;" d="M214.969,373.654l1.592,14.513l4.701,14.912l-19.86,2.3c0,0-10.174-3.11-10.063-3.148
								c0.111-0.039,8.811-11.066,8.811-11.066l-1.108-12.8L214.969,373.654z"/>
							<polygon style="fill:#BF583A;" points="199.352,381.964 199.948,388.844 202.906,391.233 216.378,386.504 215.68,380.138 
															"/>
						</g>
						<g>
							<polygon style="fill:#01265A;" points="221.143,391.496 226.291,407.417 226.723,412.06 162.302,412.06 164.623,407.417 
								187.431,399.962 198.441,392.29 210.546,397.592 							"/>
							<polygon style="fill:#FFCB73;" points="226.291,407.417 226.159,407.01 212.145,409.688 165.732,407.054 164.623,407.417 
								164.417,407.83 212.149,410.539 212.202,410.543 226.33,407.842 							"/>
							<g>
								<path style="fill:#FFCB73;" d="M181.909,404.715c1.43,1.942,1.337,3.736,1.335,3.754l0.848,0.057
									c0.006-0.085,0.126-2.109-1.5-4.316c-0.515-0.699-1.286-1.378-2.099-1.981l-1.003,0.328
									C180.423,403.201,181.348,403.955,181.909,404.715z"/>
								<path style="fill:#FFCB73;" d="M216.223,401.941c1.393-3.36,4.268-5.62,6.102-6.789l-0.273-0.846
									c-1.917,1.184-5.071,3.59-6.613,7.31c-2.213,5.336-2.582,8.122-2.597,8.239l0.843,0.107
									C213.688,409.933,214.061,407.154,216.223,401.941z"/>
							</g>
						</g>
						<g>
							<path style="fill:#87AD63;" d="M267.106,289.657c0,0,3.815,31.141,3.335,37.117c-0.915,11.387-17.151,8.794-31.447,9.495
								c-14.297,0.701-39.982-11.123-39.982-11.123s15.963,15.423,15.957,27.894c-0.006,12.471-0.055,16.028-0.055,16.028
								l4.844,4.601l-2.45,5.727l1.681,4.305l-16.901,3.336l-5.332-1.574v-6.066l-3.24-4.51l-1.212-8.598
								c-12.316-24.717-26.869-46.332-43.824-64.616v-5.995c18.893-4.529,39.865-5.398,62.478-3.423l5.203-9.225L267.106,289.657z"
								/>
							<g>
								<path style="fill:#6A9151;" d="M198.043,335.751c5.36,3.18,10.469,5.414,14.005,6.789
									c-4.182-8.393-11.514-15.882-12.828-17.188l-17.481-9.383C181.739,315.969,188.235,329.933,198.043,335.751z"/>
								<path style="fill:#6A9151;" d="M207.519,374.764c0,0,4.322-0.612,8.146-3.438c0.311-0.23,0.607-0.462,0.896-0.695
									l-1.646-1.564c0,0,0.02-1.496,0.037-5.934L207.519,374.764z"/>
								<path style="fill:#6A9151;" d="M217.308,379.396l2.45-5.727l-0.27-0.257l-13.59,7.888c0,0,4.78,0.732,8.687-0.631
									c0.92-0.321,1.872-0.705,2.791-1.103L217.308,379.396z"/>
								<path style="fill:#6A9151;" d="M219.403,332.856c6.803,2.073,14.051,3.684,19.591,3.413
									c14.297-0.701,30.533,1.893,31.447-9.495c0.48-5.977-3.335-37.117-3.335-37.117l-50.945-6.628l-5.203,9.225
									c-2.731-0.238-5.436-0.433-8.118-0.587l15.318,21.642l33.746,6.317c0,0-8.866,6.483-21.223,10.473
									C225.793,331.678,222.1,332.469,219.403,332.856z"/>
								<path style="fill:#6A9151;" d="M192.758,369.504c3.621-3.947,10.439-14.303,10.439-14.303l-12.557,7.81
									c0.557,1.089,1.116,2.176,1.665,3.277L192.758,369.504z"/>
								<path style="fill:#6A9151;" d="M196.757,379.96c0.771-0.828,1.619-1.763,2.529-2.808c3.902-4.481,6.612-11.81,6.612-11.81
									l-12.085,9.955l2.945,4.099V379.96z"/>
							</g>
						</g>
					</g>
					<g>
						<g>
							<path style="fill:#FFC564;" d="M216.235,212.735l-2.913-6.629l10.508-6.226l12.961-2.221l2.563,7.098
								c0,0,12.385,2.078,19.699,17.704c7.314,15.626,11.886,28.214,11.886,42.783s-0.62,19.972-0.62,19.972l6.688,14.463
								l-4.987,3.159l2.743,7.716l-30.006,1.094l-27.448-8.811l-13.435-12.634l4.809-5.985l2.161-25.933c0,0-3.242-19.949,0-32.167
								C214.085,213.898,216.235,212.735,216.235,212.735z"/>
							<g>
								<path style="fill:#E3AA66;" d="M272.019,302.836l4.987-3.158l-27.041,4.156c0,0,11.969,4.1,18.84,2.992
									c1.486-0.24,2.957-0.506,4.357-0.775L272.019,302.836z"/>
								<path style="fill:#E3AA66;" d="M257.723,294.192l8.201-8.312l-9.546-1.82c3.267-5.273,7.481-14.641,7.884-28.312
									c0.665-22.596-11.747-35.366-11.747-35.366l-14.832,18.628l-6.101-18.715l12.897-7.157l1.752-5.526
									c-3.898-2.352-6.878-2.856-6.878-2.856l-0.808-2.238l-23.745,6.953l1.435,3.264c0,0-0.591,0.323-1.619,2.384l4.65,5.986
									c-0.297,0.569-0.562,1.141-0.755,1.715c-1.974,5.874-1.938,20.775-1.938,20.775l-7.138-1.214
									c0.211,8.527,1.407,15.904,1.407,15.904l-0.611,7.328l21.639,1.882l-0.645,11.77l-21.785-4.154l-0.759,9.107l-2.785,3.466
									l12.482,11.274L257.723,294.192z"/>
								<path style="fill:#E3AA66;" d="M265.468,291.753c0,0,3.21-1.602,5.844-4.391l-0.993-2.147c0,0,0.196-1.707,0.368-5.788
									L265.468,291.753z"/>
							</g>
						</g>
						<g>
							<polygon style="fill:#FFD38B;" points="212.88,206.085 223.602,199.477 237.068,197.482 239.644,204.464 243.509,205.836 
								234.782,213.94 225.888,216.475 215,213.94 215.706,212.859 							"/>
							<g>
								<polygon style="fill:#E5AF6E;" points="217.278,214.471 217.75,212.283 214.848,204.873 214.113,205.326 216.866,212.355 
									216.45,214.278 								"/>
								<polygon style="fill:#E5AF6E;" points="227.863,209.358 223.955,199.425 223.602,199.477 223.168,199.745 227.063,209.643 
									228.974,215.596 229.792,215.363 								"/>
								<polygon style="fill:#E5AF6E;" points="220.922,215.319 221.159,212.047 217.698,203.116 216.962,203.569 220.297,212.176 
									220.084,215.124 								"/>
								<polygon style="fill:#E5AF6E;" points="224.772,210.279 220.725,201.25 219.997,201.699 223.937,210.448 224.663,216.19 
									225.546,216.395 								"/>
								<polygon style="fill:#E5AF6E;" points="237.997,204.931 235.263,197.75 234.402,197.877 237.302,205.493 241.182,207.997 
									241.824,207.401 								"/>
								<polygon style="fill:#E5AF6E;" points="235.344,206.365 232.121,198.215 231.258,198.343 234.635,206.885 238.769,210.238 
									239.398,209.653 								"/>
								<polygon style="fill:#E5AF6E;" points="236.277,212.552 231.077,208.412 228.127,198.807 227.277,198.933 230.341,208.913 
									235.646,213.137 								"/>
							</g>
						</g>
					</g>
					<g>
						<g>
							<g>
								<path style="fill:#D57141;" d="M175.601,243.595l-7.938-13.945c0,0-1.164,1.164-1.496,3.657
									c-0.333,2.494,1.164,7.356,1.164,7.356L175.601,243.595z"/>
								<path style="fill:#BF583A;" d="M172.387,241.161c0,0-4.458-7.092-5.924-9.204c-0.12,0.4-0.228,0.84-0.296,1.349
									c-0.333,2.494,1.164,7.356,1.164,7.356l4.281,1.773L172.387,241.161z"/>
							</g>
							<g>
								<path style="fill:#D57141;" d="M186.199,246.066l-10.515-3l-13.548-9.301l-19.699,16.707c0,0,1.188,1.45,4.537,1.209
									c3.349-0.241,5.438-1.708,5.438-1.708l-3.74,5.236l0.374,5.278c0,0,3.2,1.247,5.777,0c2.577-1.247,3.533-2.494,3.533-2.494
									l8.123-2.087l4.013-2.775l12.838,6.51L186.199,246.066z"/>
								<polygon style="fill:#BF583A;" points="170.489,253.131 177.591,256.732 182.946,245.137 175.684,243.065 174.965,242.571 
									170.004,248.033 169.103,254.089 								"/>
							</g>
						</g>
						<g>
							<polygon style="fill:#FFD38B;" points="183.97,243.241 177.465,242.582 173.218,248.531 171.871,255.011 182.694,260.778 
															"/>
							<g>
								<polygon style="fill:#E5AF6E;" points="174.191,247.169 173.687,247.874 183.318,252.197 183.384,251.296 								"/>
								<polygon style="fill:#E5AF6E;" points="183.139,254.663 172.848,250.311 172.672,251.16 183.074,255.559 								"/>
								<polygon style="fill:#E5AF6E;" points="172.163,253.604 181.322,258.765 181.739,258.025 172.345,252.731 								"/>
								<polygon style="fill:#E5AF6E;" points="175.567,245.241 175.039,245.981 183.607,248.221 183.67,247.359 								"/>
								<polygon style="fill:#E5AF6E;" points="176.228,244.315 183.858,244.775 183.92,243.928 176.811,243.499 								"/>
							</g>
						</g>
						<g>
							<path style="fill:#FFCB73;" d="M234.274,205.972c12.399-2.605,28.325,18.811,26.219,41.324
								c-2.106,22.514-11.969,45.454-11.969,45.454l-38.346-5.32l-14.473-12.191l-12.379-3.944l-5.177-12.791l4.297-15.662
								l21.426,1.28l17.286,6.18C221.159,250.305,211.602,210.735,234.274,205.972z"/>
							<g>
								<path style="fill:#E4AD6B;" d="M260.648,244.74l-23.206,30.943c0,0,9.531-2.881,17.289-9.752
									c1.183-1.048,2.243-2.031,3.21-2.958c1.127-5.047,2.057-10.372,2.553-15.677C260.573,246.442,260.619,245.59,260.648,244.74
									z"/>
								<path style="fill:#E4AD6B;" d="M195.706,267.483l-12.352,3.822l12.352,3.936l1.079,0.909
									c0.927-0.368,1.975-0.777,3.198-1.242c7.869-2.992,14.13-8.977,14.13-8.977L195.706,267.483z"/>
								<path style="fill:#E4AD6B;" d="M220.127,244.775c0.51,3.37,1.032,5.529,1.032,5.529l-17.286-6.18l0,0l0,0
									c8.039,10.59,16.582,18.64,25.919,22.693L220.127,244.775z"/>
								<path style="fill:#E4AD6B;" d="M221.926,286.877c6.428-4.876,8.755-9.531,8.755-9.531l-8.755,1.441l-11.747,8.644
									l9.229,1.28C220.184,288.169,221.018,287.566,221.926,286.877z"/>
							</g>
						</g>
					</g>
				</g>
				<g>
					<g>
						<g>
							
								<rect x="265.585" y="340.232" transform="matrix(0.8904 -0.4552 0.4552 0.8904 -142.9072 162.9102)" style="fill:#5C8DCE;" width="2.549" height="75.993"/>
							<polygon style="fill:#3C6EA5;" points="251.33,350.649 258.626,364.923 260.68,363.341 253.762,349.808 							"/>
						</g>
						<g>
							
								<rect x="279.579" y="342.198" transform="matrix(0.7417 -0.6707 0.6707 0.7417 -183.883 287.1225)" style="fill:#5C8DCE;" width="2.548" height="80.226"/>
							<polygon style="fill:#3C6EA5;" points="261.292,358.785 254.89,351.708 252.999,353.417 259.77,360.902 							"/>
						</g>
						<g>
							
								<rect x="223.219" y="381.037" transform="matrix(0.0323 -0.9995 0.9995 0.0323 -137.3023 622.8104)" style="fill:#5C8DCE;" width="59.529" height="2.549"/>
							<polygon style="fill:#3C6EA5;" points="252.334,362.93 254.849,364.02 255.219,352.604 252.671,352.521 							"/>
						</g>
						<g>
							<polygon style="fill:#5C8DCE;" points="245.92,344.396 251.428,355.808 258.122,354.08 253.944,341.529 							"/>
							<polygon style="fill:#3C6EA5;" points="256.688,349.77 253.944,341.529 245.92,344.396 249.115,351.016 							"/>
						</g>
					</g>
					<polygon style="fill:#D4554C;" points="224.032,335.032 227.148,348.632 277.777,348.632 272.406,333.091 245.31,335.862 					
						"/>
				</g>
				<g>
					<g>
						<g>
							<polygon style="fill:#A5DDEF;" points="162.397,279.805 159.091,280.593 190.468,412.06 193.962,412.06 							"/>
							<polygon style="fill:#81BBC1;" points="167.721,302.111 162.397,279.805 159.091,280.593 164.004,301.176 							"/>
						</g>
						<g>
							<polygon style="fill:#A5DDEF;" points="83.503,279.855 56.169,412.06 59.64,412.06 86.831,280.543 							"/>
							<polygon style="fill:#81BBC1;" points="80.583,293.979 83.469,296.808 86.831,280.543 83.503,279.855 							"/>
						</g>
						<g>
							<polygon style="fill:#ABA6ED;" points="67.435,274.132 70.947,283.552 173.733,283.552 177.905,273.577 							"/>
							<polygon style="fill:#8782BF;" points="68.859,277.952 174.465,281.802 177.905,273.577 67.435,274.132 							"/>
						</g>
						<polygon style="fill:#51518C;" points="179.293,266.818 180.074,275.881 63.889,275.881 64.61,266.818 						"/>
					</g>
					<g>
						<g>
							<polygon style="fill:#3F79C5;" points="94.739,266.818 78.041,195.529 80.064,194.363 101.57,261.041 100.483,266.813 
															"/>
							<polygon style="fill:#3C6EA5;" points="100.483,266.813 101.57,261.041 101.022,259.344 94.532,261.387 95.617,266.817 
															"/>
						</g>
						<g>
							<g>
								<polygon style="fill:#3C6EA5;" points="110.934,260.556 111.322,259.344 118.027,259.95 118.027,261.498 								"/>
								<polygon style="fill:#3C6EA5;" points="118.796,261.346 118.955,260.002 125.542,260.438 125.646,261.56 								"/>
								<polygon style="fill:#3C6EA5;" points="126.166,261.495 126.436,260.393 132.608,260.823 132.608,261.993 								"/>
								<polygon style="fill:#3C6EA5;" points="133.273,261.924 133.709,260.906 139.361,261.28 139.652,262.215 								"/>
								<polygon style="fill:#3C6EA5;" points="140.338,262.263 140.753,261.224 147.341,261.723 147.652,262.762 								"/>
								<path style="fill:#3C6EA5;" d="M148.774,262.762c0-0.01,0.665-1.07,0.665-1.07l7.065,0.301l0.166,1.195L148.774,262.762z"/>
							</g>
							<polygon style="fill:#3F79C5;" points="165.12,266.816 165.466,263.218 109.881,260.002 95.431,261.888 96.586,266.816 
															"/>
							<path style="fill:#34517B;" d="M99.381,262.16c-1.204,0-2.184,0.98-2.184,2.185c0,1.204,0.979,2.184,2.184,2.184
								c1.204,0,2.184-0.98,2.184-2.184C101.565,263.14,100.585,262.16,99.381,262.16z M99.381,265.679
								c-0.736,0-1.334-0.598-1.334-1.334s0.599-1.335,1.334-1.335c0.736,0,1.335,0.599,1.335,1.335S100.117,265.679,99.381,265.679
								z"/>
						</g>
					</g>
				</g>
			</g>
			<ellipse style="opacity:0.85;fill:#6B6BAF;" cx="390.429" cy="388.802" rx="59.664" ry="12.356"/>
			<g>
				<g>
					<g>
						<path style="fill:#FFFFFF;" d="M346.613,237.707c0,0,11.087-0.923,16.012-10.897c4.926-9.974,1.712-40.21,1.712-40.21
							l-8.036-2.125c0,0-6.984,2.992-9.227,8.644c-2.243,5.652-4.346,19.727-4.346,19.727l-1.52,13.42L346.613,237.707z"/>
						<g>
							<path style="fill:#626297;" d="M352.063,215.838l-7.867-11.441c-0.882,4.531-1.468,8.449-1.468,8.449l-0.168,1.485
								l5.878,17.494l5.781,3.479c3.027-1.588,6.287-4.201,8.406-8.493c1.522-3.083,2.266-8.103,2.568-13.567L352.063,215.838z"/>
							<path style="fill:#626297;" d="M350.401,203.176l14.851-2.85c-0.268-7.623-0.915-13.727-0.915-13.727l-8.036-2.125
								c0,0-6.984,2.992-9.227,8.644c-0.176,0.444-0.351,0.945-0.525,1.482L350.401,203.176z"/>
						</g>
					</g>
					<g>
						<path style="fill:#FC9769;" d="M322.479,170.178c0.021,0,10.439,2.383,10.439,2.383l2.383,6.151l-0.923,5.264l0.923,9.143
							l-7.37,0.499l-0.222-9.642l-3.823-5.874l1.718-4.544C323.845,173.078,322.907,171.858,322.479,170.178z"/>
						<g>
							<g>
								<path style="fill:#FFFFFF;" d="M324.329,183.477l11.13,1.71l0.894,7.183l8.498,20.476l1.762,24.861
									c0,0-11.867,1.879-17.63-7.113c-5.763-8.993-6.206-25.913-5.209-31.971c0.997-6.058,1.773-8.272,1.773-8.272
									L324.329,183.477z"/>
								<g>
									<path style="fill:#D5F3FF;" d="M336.353,192.37l-0.7-5.627l-4.888,3.196l2.712,8.333l-3.526,3.74l4.427,8.295l3.572-2.076
										c-0.133,2.089-0.199,4.239-0.142,6.305c0.249,9.046,3.4,11.73,3.4,11.73l3.618-13.48L336.353,192.37z"/>
									<path style="fill:#D5F3FF;" d="M331.386,195.446l-6.582-9.295l0.745,4.199c0,0-0.277,0.796-0.711,2.714
										c0.603,0.628,1.28,1.254,1.957,1.717C328.826,196.17,331.386,195.446,331.386,195.446z"/>
								</g>
							</g>
							<g>
								<g>
									<path style="fill:#626297;" d="M338.182,221.888l4.654-13.897l-2.307-5.559l-12.1,7.477c0,0-1.965,3.027-4.191,6.457
										c0.828,5.213,2.311,10.428,4.746,14.228c2.709,4.227,6.767,6.052,10.306,6.799L338.182,221.888z"/>
									<path style="fill:#626297;" d="M339.413,199.742l-2.007-4.836l-12.771-0.917c-0.253,1.197-0.545,2.723-0.86,4.634
										c-0.27,1.638-0.432,4.073-0.415,6.928l6.592-4.562L339.413,199.742z"/>
									<polygon style="fill:#626297;" points="335.459,185.187 324.329,183.477 325.475,189.939 335.801,187.937 									"/>
								</g>
								<g>
									<polygon style="fill:#51518C;" points="333.477,198.272 331.054,200.843 339.413,199.742 337.406,194.906 332.262,194.537 
																			"/>
									<path style="fill:#51518C;" d="M326.795,194.781c2.031,1.389,4.591,0.665,4.591,0.665l-0.725-1.024l-4.759-0.342
										C326.195,194.335,326.495,194.576,326.795,194.781z"/>
									<path style="fill:#51518C;" d="M340.529,202.432l-7.786,4.811l1.635,3.064l3.572-2.076
										c-0.133,2.089-0.199,4.239-0.142,6.305c0.07,2.54,0.372,4.563,0.766,6.181l4.262-12.727L340.529,202.432z"/>
									<polygon style="fill:#51518C;" points="332.995,188.481 335.801,187.937 335.653,186.743 									"/>
									<polygon style="fill:#51518C;" points="325.475,189.939 327.243,189.596 324.803,186.151 									"/>
								</g>
							</g>
						</g>
					</g>
				</g>
				<g>
					<path style="fill:#01265A;" d="M409.41,188.183c-0.676-1.222-1.668-2.237-2.919-2.871c-0.742-0.377-1.612-0.523-2.3-1.003
						c-0.666-0.465-0.952-1.258-1.008-2.042c-0.131-1.83,0.853-3.495,0.968-5.301c0.1-1.577-0.573-3.099-1.624-4.25
						c-2.521-2.761-6.347-3.121-9.871-3.116c-3.706,0.006-7.611,0.205-10.646-2.296c-2.597-2.141-4.024-5.403-4.929-8.566
						c-1.072-3.749-1.567-7.707-3.222-11.27c-1.306-2.811-3.453-5.523-6.392-6.723c-0.198-0.081-0.403-0.135-0.606-0.201
						c0.044-0.257,0.081-0.514,0.107-0.77c0.233-2.296-0.289-4.67-1.564-6.603c-2.519-3.818-7.702-5.54-12.025-4.137
						c-2.416,0.784-4.421,2.395-6.681,3.502c-1.147,0.562-2.361,0.976-3.648,1.014c-1.475,0.043-2.924-0.289-4.383-0.451
						c-1.363-0.151-2.745-0.169-4.059,0.278c-1.089,0.371-2.056,1.053-2.825,1.903c-1.579,1.745-2.2,4.171-1.618,6.451
						c0.58,2.275,2.279,4.23,4.391,5.226c1.582,0.746,3.427,0.95,5.172,0.662c0.609,2.352,1.86,4.493,3.602,6.212
						c0.99,0.977,2.106,1.787,3.333,2.441c1.282,0.684,2.702,1.226,3.772,2.24c2.327,2.207,1.435,5.75,1.58,8.593
						c0.149,2.937,1.165,5.8,2.844,8.209c0.836,1.199,1.843,2.277,2.98,3.195c1.086,0.878,2.265,1.629,3.395,2.447
						c1.086,0.786,2.143,1.636,2.939,2.726c0.898,1.228,1.315,2.691,1.346,4.203c0.066,3.195-1.202,6.243-1.289,9.428
						c-0.077,2.802,0.901,5.593,2.603,7.809c1.716,2.233,4.159,3.86,6.915,4.479c2.819,0.633,5.891,0.291,8.484-0.994
						c0.027-0.013,0.052-0.03,0.079-0.044c0.43,0.194,0.867,0.37,1.314,0.518c1.625,0.537,3.347,0.798,5.057,0.644
						c3.168-0.285,6.108-2.012,7.729-4.784c0.457-0.781,0.841-1.704,1.026-2.65c1.446-0.006,2.884-0.164,4.279-0.534
						c3.077-0.816,5.81-2.646,7.49-5.375C410.734,193.904,410.824,190.738,409.41,188.183z"/>
					<g>
						<g>
							<path style="fill:#FDAC7E;" d="M349.212,173.282l-4.963,1.194c0,0-4.882-6.909-6.234-14.569
								c-1.351-7.66,0.076-21.729,11.866-22.73c11.79-1.001,18.399,6.434,18.324,15.896c-0.075,9.462-4.806,15.77-4.806,15.77
								l6.308,12.166l4.959,2.25l-22.23,12.983l0.4-9.475L349.212,173.282z"/>
							<path style="fill:#FC9769;" d="M353.535,178.155c2.229-2.924,2.203-7.216,2.203-7.216l-6.527,2.343l2.008,7.473
								C351.762,180.272,352.53,179.473,353.535,178.155z"/>
						</g>
						<g>
							<path style="fill:#FC9769;" d="M341.962,164.286l0.553,0.407l1.401-8.074l-0.836-0.146l-1.188,6.841
								c-0.475-0.146-1.07-0.129-1.514,0.447c-0.712,0.927,0.587,2.975,1.001,3.58l0.701-0.48c-0.743-1.086-1.233-2.318-1.029-2.583
								C341.355,163.886,341.865,164.217,341.962,164.286z"/>
							<g>
								<path style="fill:#01265A;" d="M349.791,162.42c2.909-0.582,4.155-2.819,5.527-4.152c1.372-1.333,3.034-2.245,3.034-2.245
									l-1.393-1.974c0,0-8.027,4.176-13.79,3.836c-3.85-0.227-5.082-0.477-5.48-0.618c0.072,0.936,0.182,1.826,0.325,2.64
									c0.102,0.581,0.231,1.155,0.37,1.725c0.47,0.365,1.391,0.942,2.18,0.567c1.108-0.526,1.136-2.427,2.327-2.516
									C344.084,159.594,346.882,163.002,349.791,162.42z"/>
								<path style="fill:#FFFFFF;" d="M346.799,159.69c-0.084-0.842,1.076-1.647,2.591-1.799c1.515-0.151,2.811,0.408,2.895,1.25
									c0.084,0.842-1.076,1.647-2.591,1.798C348.179,161.092,346.883,160.532,346.799,159.69z"/>
								<path style="fill:#FFFFFF;" d="M338.145,159.424c0.075-0.63,0.864-1.053,1.761-0.946s1.564,0.704,1.489,1.334
									c-0.075,0.63-0.864,1.053-1.761,0.946S338.07,160.054,338.145,159.424z"/>
								<g>
									<path style="fill:#01265A;" d="M347.064,159.307l0.579,0.622c1.132-1.056,2.393-1.244,4.09-0.603l0.3-0.795
										C350.051,157.784,348.426,158.037,347.064,159.307z"/>
									<path style="fill:#01265A;" d="M347.984,159.124c0,0,0.204,1.485,0.91,1.35c0.707-0.135,0.552-1.901,0.552-1.901
										L347.984,159.124z"/>
								</g>
								<g>
									<path style="fill:#01265A;" d="M338.141,159.046l0.417,0.74c0.782-0.441,1.516-0.385,2.31,0.179l0.491-0.694
										C340.295,158.518,339.212,158.44,338.141,159.046z"/>
									<path style="fill:#01265A;" d="M338.921,159.175c0,0,0.043,1.305,0.513,1.204c0.47-0.101,0.425-1.296,0.425-1.296
										L338.921,159.175z"/>
								</g>
							</g>
							<g>
								<path style="fill:#FC9769;" d="M347.363,167.108c-1.074,1.088-2.301,2.266-3.37,2.906l-1.666-1.505l-0.569,0.631
									l2.113,1.909l0.263-0.139c1.228-0.646,2.627-1.983,3.833-3.204L347.363,167.108z"/>
								
									<rect x="343.573" y="171.06" transform="matrix(0.4277 -0.9039 0.9039 0.4277 41.3963 409.3945)" style="fill:#FC9769;" width="0.85" height="1.894"/>
							</g>
							<path style="fill:#01265A;" d="M348.86,154.056c-2.287,0.557-3.889,2.726-3.956,2.818l0.686,0.501
								c0.015-0.02,1.491-2.011,3.471-2.494c1.949-0.474,2.918-0.035,2.923-0.032l0.38-0.76
								C352.315,154.064,351.146,153.498,348.86,154.056z"/>
							<path style="fill:#01265A;" d="M339.839,154.894c-1.278-0.392-2.191-0.134-2.229-0.122l0.238,0.816
								c0.007-0.002,0.719-0.194,1.742,0.118c1.021,0.314,1.926,1.525,1.935,1.537l0.684-0.505
								C342.166,156.678,341.13,155.29,339.839,154.894z"/>
						</g>
					</g>
					<path style="fill:#01265A;" d="M373.764,165.914c-1.015-0.637-2.175-0.873-2.524-2.177c-0.378-1.412,0.329-2.862,0.772-4.174
						c0.476-1.411,0.875-2.847,1.116-4.318c0.442-2.695,0.266-5.605-1.053-8.047c-0.656-1.214-1.572-2.278-2.718-3.054
						c-0.946-0.64-2.117-1.161-3.286-1.214c-0.019-1.796-0.545-3.605-1.479-5.071c-1.975-3.1-5.626-4.878-9.228-5.099
						c-2.058-0.126-4.117,0.245-6.052,0.935c-0.993,0.354-1.948,0.804-2.861,1.329c-0.903,0.52-1.749,1.137-2.665,1.634
						c-1.055,0.573-2.06,0.727-3.251,0.669c-1.018-0.049-2.018-0.102-3.019,0.129c-1.634,0.377-3.26,1.393-3.824,3.048
						c-0.582,1.708,0.032,3.734,1.778,4.454c0.717,0.296,1.446,0.357,2.16,0.264c0.202,2.113,1.61,4.177,3.224,5.395
						c2.39,1.802,5.524,2.315,8.434,1.844c0.895-0.145,1.773-0.388,2.625-0.698c0.276-0.101,0.598-0.206,0.92-0.332
						c0.594,1.804,1.625,3.512,3.395,4.303c0.413,0.185,0.854,0.297,1.302,0.372c-0.023,0.474-0.018,0.951-0.015,1.405
						c0.007,0.96,0.046,1.923,0.158,2.877c0.202,1.72,0.601,3.433,1.361,4.997c1.391,2.862,3.9,5.16,7.159,5.505
						c0.865,0.091,1.748,0.055,2.594-0.153c0.366-0.09,0.809-0.218,1.221-0.401c1.791,0.612,4.059,0.289,4.766-1.609
						C375.183,167.624,374.738,166.526,373.764,165.914z"/>
					<g>
						<path style="fill:#FDAC7E;" d="M356.301,156.302c0,0,0.113-3.943,3.905-4.281s5.895,3.68,4.919,7.097
							c-0.976,3.417-3.004,5.238-5.182,5.5c-2.178,0.263-2.883-0.544-2.883-0.544L356.301,156.302z"/>
						<path style="fill:#FC9769;" d="M359.285,156.411c0.096-0.298,0.204-0.585,0.329-0.844c0.804-1.669,2.822-1.412,2.905-1.4
							l0.107-0.76c-0.909-0.129-2.865,0.083-3.703,1.828c-0.962,2.002-1.085,5.236-1.09,5.373l0.768,0.027
							c0.001-0.023,0.066-1.7,0.44-3.327c0.356-0.173,1.381-0.538,2.27,0.453c1.128,1.257-0.05,3.836-0.062,3.862l0.696,0.325
							c0.058-0.124,1.405-3.065-0.062-4.7C361.032,156.301,360.031,156.23,359.285,156.411z"/>
					</g>
				</g>
				<g>
					<g>
						<g>
							<path style="fill:#FDAC7E;" d="M366.997,248.033l1.773,15.238l-18.62,41.892c24.082,15.057,44.795,32.253,58.044,54.184
								l0.39,8.072l-4.017,4.793l17.067-0.665l-3.764-13.632c0,0-1.666-21.75-8.316-35.464
								c-6.65-13.714-17.954-17.289-17.954-17.289s16.589-13.681,20.735-23.53c4.146-9.849-0.121-24.014-4-29.888
								c-3.879-5.874-9.531-11.858-9.531-11.858L366.997,248.033z"/>
							<polygon style="fill:#FFCB73;" points="418.395,359.816 408.228,360.041 408.584,367.42 404.567,372.213 421.634,371.548 
															"/>
						</g>
						<g>
							<polygon style="fill:#01265A;" points="420.457,363.596 426.051,378.67 426.353,382.228 370.612,382.228 373.523,378.467 
								393.398,373.46 408.038,364.815 							"/>
							<polygon style="fill:#FFCB73;" points="412.087,380.919 426.087,379.094 426.052,378.67 425.9,378.262 412.055,380.073 
								374.918,378.116 373.523,378.467 373.207,378.876 							"/>
							<g>
								<path style="fill:#FFCB73;" d="M414.675,380.485c-0.001-0.036-0.087-3.726,1.463-7.408c1.003-2.383,3.924-4.353,5.822-5.431
									l-0.302-0.814c-1.99,1.113-5.175,3.233-6.303,5.915c-1.625,3.858-1.533,7.605-1.529,7.763L414.675,380.485z"/>
								<path style="fill:#FFCB73;" d="M387.788,377.174c0.986,1.597,0.993,2.196,0.996,2.196c0,0,0,0,0-0.001l0.836,0.151
									c0.032-0.181,0.049-0.917-1.109-2.793c-0.378-0.612-0.963-1.164-1.594-1.635l-1.093,0.275
									C386.595,375.865,387.361,376.482,387.788,377.174z"/>
							</g>
							<g>
								
									<rect x="405.817" y="365.51" transform="matrix(0.6913 -0.7225 0.7225 0.6913 -140.156 406.9594)" style="fill:#D5F3FF;" width="0.85" height="4.027"/>
								
									<rect x="402.762" y="366.969" transform="matrix(0.9712 -0.2383 0.2383 0.9712 -76.3691 106.7367)" style="fill:#D5F3FF;" width="0.849" height="4.393"/>
								
									<rect x="399.402" y="369.053" transform="matrix(0.4721 -0.8816 0.8816 0.4721 -115.608 548.108)" style="fill:#D5F3FF;" width="0.849" height="3.051"/>
								<polygon style="fill:#D5F3FF;" points="396.87,370.619 397.147,373.473 397.993,373.391 397.716,370.538 								"/>
							</g>
						</g>
						<g>
							<path style="fill:#3F79C5;" d="M417.734,356.427c-3.73-0.077-7.358,0.161-10.893,0.748
								c-13.28-20.902-33.417-37.453-56.69-52.008l18.616-41.897l-1.767-15.234l31.803-8.148c0,0,5.65,5.982,9.533,11.861
								c3.874,5.871,8.14,20.035,4.002,29.883c-4.146,9.848-20.74,23.536-20.74,23.536s11.309,3.569,17.953,17.282
								C415.159,334.021,417.224,351.294,417.734,356.427z"/>
							<path style="fill:#3C6EA5;" d="M394.16,313.187l3.241-4.995c-3.321-2.242-5.802-3.025-5.802-3.025
								s16.594-13.688,20.74-23.536c4.138-9.848-0.128-24.011-4.002-29.883c-1.452-2.198-3.151-4.411-4.709-6.32
								c-10.731,0.325-22.79,0.646-29.673,0.825l-5.934,1.52l-0.69,3.103l1.438,12.393l-3.151,7.091l2.82,5.446l-13.333,18.214
								l-4.952,11.146c20.129,12.589,37.902,26.677,50.931,43.776c0.921-3.883,2.073-9.903,2.271-16.369
								C403.694,321.526,394.16,313.187,394.16,313.187z"/>
							<g>
								<path style="fill:#34517B;" d="M385.433,309.819c0.723,0.315,1.481,0.66,2.259,1.034l0.368-0.767
									c-0.788-0.378-1.557-0.727-2.289-1.046L385.433,309.819z"/>
								<path style="fill:#34517B;" d="M380.805,307.989c0.638,0.227,1.43,0.52,2.33,0.875l0.312-0.79
									c-0.91-0.36-1.712-0.656-2.357-0.885L380.805,307.989z"/>
								<path style="fill:#34517B;" d="M386.168,298.819l0.632,0.568c0.543-0.604,1.102-1.228,1.669-1.863l-0.634-0.566
									C387.27,297.593,386.711,298.216,386.168,298.819z"/>
								
									<rect x="379.327" y="305.148" transform="matrix(0.6787 -0.7344 0.7344 0.6787 -102.1396 377.6711)" style="fill:#34517B;" width="2.505" height="0.85"/>
								<path style="fill:#34517B;" d="M388.547,254.396l-0.677,0.513c0.003,0.003,0.572,0.754,1.463,2.022l0.695-0.488
									C389.124,255.156,388.547,254.396,388.547,254.396z"/>
								<path style="fill:#34517B;" d="M391.785,293.773l-0.641-0.559c-0.548,0.627-1.099,1.255-1.649,1.877l0.637,0.563
									C390.683,295.03,391.235,294.402,391.785,293.773z"/>
								<path style="fill:#34517B;" d="M396.001,287.51l0.655,0.539c0.558-0.677,1.086-1.331,1.577-1.951l-0.665-0.528
									C397.081,286.187,396.556,286.836,396.001,287.51z"/>
								<path style="fill:#34517B;" d="M399.67,274.043c-0.256-0.752-0.557-1.548-0.895-2.363l-0.785,0.325
									c0.332,0.799,0.626,1.577,0.875,2.312L399.67,274.043z"/>
								<path style="fill:#34517B;" d="M397.746,269.378c-0.358-0.756-0.736-1.509-1.126-2.251l-0.752,0.395
									c0.383,0.733,0.756,1.475,1.111,2.221L397.746,269.378z"/>
								<path style="fill:#34517B;" d="M392.823,260.616c-0.479-0.753-0.942-1.457-1.374-2.103l-0.705,0.473
									c0.429,0.641,0.887,1.34,1.362,2.086L392.823,260.616z"/>
								<path style="fill:#34517B;" d="M395.416,264.92c-0.421-0.743-0.846-1.469-1.27-2.17l-0.727,0.44
									c0.418,0.693,0.841,1.411,1.256,2.148L395.416,264.92z"/>
								<polygon style="fill:#34517B;" points="382.807,302.523 383.435,303.095 385.12,301.245 384.491,300.674 								"/>
								<path style="fill:#34517B;" d="M403.355,325.754c0.358,0.743,0.713,1.497,1.06,2.254l0.772-0.353
									c-0.349-0.763-0.705-1.523-1.067-2.271L403.355,325.754z"/>
								<path style="fill:#34517B;" d="M405.434,330.283c0.339,0.771,0.668,1.538,0.985,2.29l0.783-0.33
									c-0.319-0.756-0.65-1.526-0.99-2.302L405.434,330.283z"/>
								<path style="fill:#34517B;" d="M407.376,334.877c0.327,0.803,0.637,1.58,0.928,2.316l0.79-0.312
									c-0.291-0.739-0.603-1.518-0.932-2.324L407.376,334.877z"/>
								<path style="fill:#34517B;" d="M409.999,339.217l-0.793,0.304c0.34,0.89,0.635,1.679,0.878,2.337l0.797-0.294
									C410.637,340.903,410.341,340.11,409.999,339.217z"/>
								<path style="fill:#34517B;" d="M401.811,320.916l-0.735,0.425l0.086,0.154c0.363,0.655,0.724,1.335,1.083,2.031l0.755-0.388
									c-0.362-0.704-0.728-1.392-1.094-2.055L401.811,320.916z"/>
								<path style="fill:#34517B;" d="M399.067,283.612l0.707,0.471c0.469-0.701,0.787-1.536,0.946-2.481l-0.838-0.141
									C399.743,282.287,399.469,283.01,399.067,283.612z"/>
								<path style="fill:#34517B;" d="M394.402,289.428c-0.526,0.622-1.068,1.258-1.62,1.9l0.644,0.554
									c0.554-0.644,1.098-1.281,1.626-1.907L394.402,289.428z"/>
								<path style="fill:#34517B;" d="M394.16,314.511c0.705,0.476,1.376,0.965,1.996,1.452l0.526-0.667
									c-0.636-0.5-1.324-1.001-2.045-1.488L394.16,314.511z"/>
								<path style="fill:#34517B;" d="M399.551,276.678c0.201,0.852,0.335,1.66,0.398,2.401l0.846-0.073
									c-0.066-0.782-0.207-1.631-0.418-2.524L399.551,276.678z"/>
								<path style="fill:#34517B;" d="M398.02,317.568c0.62,0.588,1.182,1.188,1.67,1.783l0.657-0.539
									c-0.511-0.621-1.098-1.248-1.743-1.859L398.02,317.568z"/>
								<path style="fill:#34517B;" d="M389.908,311.973c0.749,0.398,1.475,0.807,2.162,1.214l0.433-0.73
									c-0.697-0.414-1.435-0.83-2.196-1.234L389.908,311.973z"/>
							</g>
							<path style="fill:#34517B;" d="M404.052,320.586c-4.998-9.113-17.507-13.627-20.857-14.697
								c1.762-1.383,6.918-5.866,16.41-17.412c11.991-14.59-8.707-35.705-8.917-35.917l-0.602,0.599
								c0.205,0.207,20.373,20.774,8.862,34.778c-11.681,14.211-16.866,17.724-16.917,17.758l-0.772,0.512l0.891,0.251
								c0.156,0.044,15.659,4.506,21.158,14.535c5.559,10.136,8.575,22.793,8.604,22.919l0.826-0.194
								C412.708,343.591,409.667,330.825,404.052,320.586z"/>
							<path style="fill:#34517B;" d="M415.98,344.076c-0.052-0.282-0.105-0.567-0.159-0.853c-5.667-0.104-11.485,0.69-17.36,2.387
								c0.195,0.239,0.387,0.481,0.58,0.722C404.777,344.709,410.454,343.956,415.98,344.076z"/>
						</g>
					</g>
					<g>
						<g>
							<path style="fill:#FDAC7E;" d="M401.953,239.345l7.546,8.688c0,0,11.803,8.493,6.982,23.752
								c-4.821,15.259-13.041,20.966-13.041,20.966l-21.53,19.351c0,0,13.186,7.857,15.982,20.99
								c2.796,13.133,0.542,35.857,0.542,35.857l4.748,14.915h-24.769l9.974-7.882l1.33-6.317
								c-10.716-23.284-24.294-43.022-41.563-58.186l25.971-41.058l-3.608-8.312l-0.582-15.793L401.953,239.345z"/>
							<polygon style="fill:#FFCB73;" points="389.413,371.104 388.386,375.981 378.412,383.863 403.181,383.863 398.49,369.126 
															"/>
						</g>
						<g>
							<path style="fill:#3F79C5;" d="M416.477,271.783c-4.818,15.26-13.034,20.97-13.034,20.97l-21.53,19.347
								c0,0,13.187,7.859,15.982,20.995c1.912,8.998,1.453,22.499,0.977,30.112c-3.679,0.748-7.256,1.776-10.74,3.101
								c-10.459-21.828-23.544-40.393-39.977-54.829l25.966-41.056l-3.603-8.318l-0.586-15.787l32.024-6.976l7.545,8.692
								C409.501,248.035,421.303,256.523,416.477,271.783z"/>
							<path style="fill:#3C6EA5;" d="M416.507,257.906c-2.233-6.43-7.006-9.871-7.006-9.871l-7.246-8.348l-2.427,0.119
								l-16.554,3.606l-8.031,5.759l-5.114,2.456l0.389,10.478l3.336,7.703l24.155,4.185l14.728-9.949L416.507,257.906z"/>
							<path style="fill:#34517B;" d="M373.968,311.543c3.649-3.753,31.447-32.748,31.023-44.74
								c-0.445-12.564-13.367-23.88-13.917-24.356l-0.556,0.642c0.132,0.115,13.192,11.546,13.624,23.743
								c0.431,12.199-30.815,44.153-31.131,44.474l-0.357,0.363l0.421,0.286c0.125,0.084,12.433,8.533,15.403,18.584
								c3.001,10.163,4.089,19.013,4.1,19.101l0.843-0.101c-0.011-0.089-1.105-9.006-4.128-19.24
								C386.515,320.897,376.209,313.141,373.968,311.543z"/>
							<g>
								<path style="fill:#34517B;" d="M388.972,244.641c-0.61-0.543-0.972-0.844-0.972-0.844l-0.543,0.654
									c0.003,0.003,0.357,0.296,0.949,0.824L388.972,244.641z"/>
								<path style="fill:#34517B;" d="M374.839,306.96l-0.662-0.533c-0.593,0.738-1.134,1.409-1.614,2.001l0.66,0.534
									C373.703,308.371,374.245,307.699,374.839,306.96z"/>
								<path style="fill:#34517B;" d="M377.376,302.407c-0.554,0.701-1.086,1.374-1.596,2.013l0.665,0.529
									c0.509-0.641,1.044-1.314,1.597-2.016L377.376,302.407z"/>
								<path style="fill:#34517B;" d="M380.539,298.361c-0.535,0.692-1.062,1.368-1.577,2.027l0.669,0.523
									c0.516-0.659,1.043-1.337,1.58-2.03L380.539,298.361z"/>
								<path style="fill:#34517B;" d="M387.422,290.677l-0.684-0.504c-0.509,0.69-1.021,1.377-1.532,2.06l0.68,0.509
									C386.399,292.058,386.911,291.369,387.422,290.677z"/>
								<path style="fill:#34517B;" d="M392.068,248.818l0.614-0.587c-0.645-0.674-1.26-1.29-1.821-1.833l-0.591,0.611
									C390.823,247.544,391.432,248.152,392.068,248.818z"/>
								<path style="fill:#34517B;" d="M388.943,288.599c0.506-0.694,1.007-1.39,1.503-2.084l-0.692-0.493
									c-0.494,0.691-0.993,1.385-1.498,2.078L388.943,288.599z"/>
								<path style="fill:#34517B;" d="M383.662,294.283c-0.523,0.69-1.042,1.371-1.557,2.043l0.675,0.516
									c0.514-0.672,1.035-1.355,1.558-2.046L383.662,294.283z"/>
								<path style="fill:#34517B;" d="M401.279,261.097c-0.253-0.786-0.581-1.605-0.975-2.433l-0.767,0.365
									c0.378,0.794,0.691,1.577,0.934,2.328L401.279,261.097z"/>
								<path style="fill:#34517B;" d="M396.874,275.367l0.727,0.44c0.466-0.769,0.902-1.515,1.304-2.231l-0.742-0.417
									C397.766,273.868,397.335,274.606,396.874,275.367z"/>
								<path style="fill:#34517B;" d="M394.125,279.69l0.709,0.47c0.485-0.733,0.954-1.455,1.405-2.161l-0.717-0.456
									C395.074,278.243,394.607,278.961,394.125,279.69z"/>
								<path style="fill:#34517B;" d="M396.093,252.121c-0.513-0.646-1.072-1.314-1.661-1.986l-0.639,0.561
									c0.581,0.66,1.13,1.318,1.635,1.952L396.093,252.121z"/>
								<path style="fill:#34517B;" d="M391.236,283.926l0.695,0.488c0.499-0.712,0.987-1.419,1.465-2.119l-0.702-0.478
									C392.218,282.514,391.731,283.218,391.236,283.926z"/>
								<path style="fill:#34517B;" d="M396.952,254.683c0.509,0.721,0.975,1.436,1.386,2.124l0.729-0.436
									c-0.422-0.706-0.9-1.439-1.42-2.177L396.952,254.683z"/>
								<path style="fill:#34517B;" d="M399.361,270.908l0.762,0.378c0.432-0.872,0.79-1.673,1.063-2.382l-0.793-0.305
									C400.128,269.283,399.782,270.06,399.361,270.908z"/>
								<path style="fill:#34517B;" d="M401.868,263.67l-0.843,0.108c0.056,0.446,0.085,0.885,0.085,1.307
									c0,0.391-0.024,0.775-0.072,1.142l0.843,0.11c0.052-0.402,0.079-0.824,0.079-1.251
									C401.96,264.627,401.929,264.152,401.868,263.67z"/>
								<path style="fill:#34517B;" d="M371.651,310.891l-0.657-0.538c-0.518,0.633-0.805,0.979-0.806,0.98l-0.28,0.337l0.345,0.27
									c0.002,0.002,0.365,0.285,0.978,0.792l0.541-0.654c-0.268-0.222-0.49-0.402-0.655-0.536
									C371.252,311.379,371.431,311.161,371.651,310.891z"/>
								<path style="fill:#34517B;" d="M373.122,314.341c0.565,0.495,1.188,1.054,1.848,1.665l0.577-0.624
									c-0.666-0.616-1.296-1.18-1.866-1.679L373.122,314.341z"/>
								<path style="fill:#34517B;" d="M383.236,325.213c0.491,0.72,0.924,1.424,1.288,2.091l0.747-0.407
									c-0.378-0.692-0.826-1.42-1.333-2.162L383.236,325.213z"/>
								<path style="fill:#34517B;" d="M376.769,317.72c0.575,0.565,1.16,1.158,1.744,1.771l0.616-0.586
									c-0.591-0.62-1.182-1.219-1.764-1.791L376.769,317.72z"/>
								<path style="fill:#34517B;" d="M386.333,329.222l-0.797,0.294c0.275,0.746,0.548,1.533,0.819,2.346l0.806-0.269
									C386.888,330.772,386.611,329.977,386.333,329.222z"/>
								<path style="fill:#34517B;" d="M387.929,333.982l-0.811,0.251c0.244,0.789,0.484,1.589,0.719,2.386l0.815-0.239
									C388.416,335.577,388.174,334.774,387.929,333.982z"/>
								<path style="fill:#34517B;" d="M389.338,338.788l-0.818,0.229c0.228,0.819,0.448,1.626,0.656,2.406l0.821-0.219
									C389.787,340.42,389.567,339.61,389.338,338.788z"/>
								<path style="fill:#34517B;" d="M380.186,321.322c0.563,0.644,1.097,1.284,1.585,1.903l0.667-0.526
									c-0.497-0.631-1.04-1.282-1.613-1.937L380.186,321.322z"/>
								<path style="fill:#34517B;" d="M390.632,343.624l-0.823,0.212c0.226,0.875,0.43,1.689,0.611,2.419l0.825-0.204
									C391.063,345.319,390.858,344.501,390.632,343.624z"/>
								<path style="fill:#34517B;" d="M391.008,348.669c0.186,0.782,0.289,1.232,0.289,1.234l0.828-0.189
									c0,0-0.103-0.452-0.29-1.24L391.008,348.669z"/>
							</g>
							<path style="fill:#34517B;" d="M381.919,354.296c5.475-2.862,11.211-4.756,17.357-5.734c-0.004-0.286-0.011-0.573-0.016-0.86
								c-6.294,0.989-12.162,2.924-17.763,5.856C381.636,353.806,381.78,354.048,381.919,354.296z"/>
						</g>
						<g>
							<polygon style="fill:#01265A;" points="400.689,373.321 406.284,388.395 406.585,391.953 350.844,391.953 353.755,388.192 
								373.63,383.185 388.27,374.54 							"/>
							<polygon style="fill:#FFCB73;" points="392.32,390.644 406.32,388.819 406.284,388.395 406.133,387.987 392.287,389.798 
								355.15,387.841 353.755,388.192 353.439,388.601 							"/>
							<g>
								<path style="fill:#FFCB73;" d="M394.907,390.21c-0.001-0.036-0.087-3.726,1.463-7.408c1.003-2.383,3.924-4.353,5.822-5.431
									l-0.302-0.814c-1.99,1.113-5.175,3.233-6.304,5.915c-1.625,3.858-1.533,7.605-1.529,7.763L394.907,390.21z"/>
								<path style="fill:#FFCB73;" d="M368.021,386.899c0.986,1.597,0.993,2.196,0.996,2.196c0,0,0,0,0-0.001l0.836,0.151
									c0.032-0.181,0.049-0.917-1.109-2.793c-0.378-0.612-0.963-1.164-1.594-1.635l-1.093,0.276
									C366.827,385.59,367.593,386.207,368.021,386.899z"/>
							</g>
							<g>
								
									<rect x="386.049" y="375.235" transform="matrix(0.6913 -0.7225 0.7225 0.6913 -153.284 395.6783)" style="fill:#D5F3FF;" width="0.85" height="4.027"/>
								
									<rect x="382.994" y="376.694" transform="matrix(0.9712 -0.2384 0.2384 0.9712 -79.2582 102.308)" style="fill:#D5F3FF;" width="0.849" height="4.393"/>
								
									<rect x="379.635" y="378.778" transform="matrix(0.4721 -0.8816 0.8816 0.4721 -134.6124 535.8306)" style="fill:#D5F3FF;" width="0.849" height="3.051"/>
								<polygon style="fill:#D5F3FF;" points="377.102,380.344 377.379,383.198 378.226,383.116 377.948,380.263 								"/>
							</g>
						</g>
					</g>
				</g>
				<g>
					<path style="fill:#D9F4FF;" d="M368.242,176.958l-16.553,15.412l-7.756,32.306c-0.125,0.519-0.097,1.068,0.097,1.565
						c2.094,5.364,5.481,9.43,10.928,11.43l11.965,19.825l-0.924,4.335l3.436,4.987l29.812-0.554l17.289-14.186l-5.098-8.201
						l-5.432-2.849l-15.735-27.041c0,0-8.755-22.088-12.302-26.853c-3.546-4.765-6.652-5.207-6.652-5.207L368.242,176.958z"/>
					<g>
						<polygon style="fill:#51518C;" points="410.414,247.608 411.766,244.405 411.438,243.877 406.006,241.028 402.628,235.224 
							388.826,250.136 368.625,254.193 364.547,253.558 366.923,257.495 365.999,261.831 366.481,262.529 395.869,261.073 						"/>
						<path style="fill:#51518C;" d="M350.152,224.508l26.265-8.67l9.759-11.788c-1.921-4.521-4.188-9.641-6.046-13.232
							l-12.609,11.699l-15.87,7.089l-3.565-2.232l-3.513,14.632L350.152,224.508z"/>
						<path style="fill:#51518C;" d="M396.807,231.123l1.97-2.516l-8.507-14.62c0,0-0.139-0.35-0.388-0.969l-22.361,15.094
							l-15.047,3.712l-7.361-3.171c2.124,4.168,5.249,7.33,9.845,9.018l5.583,9.251l6.98-0.524L396.807,231.123z"/>
						<path style="fill:#51518C;" d="M367.522,186.599l4.061-4.611c-0.169-0.045-0.267-0.061-0.267-0.061l-3.075-4.97
							l-16.553,15.412l-0.763,3.179l1.549,2.201L367.522,186.599z"/>
					</g>
				</g>
				<g>
					<g>
						<path style="fill:#51518C;" d="M306.544,122.672c-0.27,0-0.539-0.005-0.807-0.013l0.028-0.85
							c6.428,0.222,13.236-2.209,20.277-7.195c3.701-2.621,7.158-5.695,10.501-8.668c2.088-1.857,4.247-3.777,6.451-5.574
							c14.255-11.623,32.152-19.315,50.396-21.66l0.883-0.111c2.836-0.354,5.768-0.719,8.229-2.101
							c2.5-1.406,4.686-4.492,3.812-7.442c-1.359-4.593-8.078-4.724-10.113-4.654c-7.006,0.24-14.068,1.933-20.897,3.57
							c-9.848,2.361-20.032,4.803-30.091,2.855c-4.756-0.922-9.296-2.806-13.687-4.629c-3.552-1.475-7.225-2.999-10.977-3.996
							c-13.631-3.625-29.267,0.067-39.836,9.404l-0.563-0.637c10.943-9.665,26.505-13.339,40.618-9.588
							c3.807,1.012,7.506,2.548,11.083,4.032c4.352,1.807,8.852,3.675,13.522,4.579c9.878,1.914,19.971-0.506,29.732-2.846
							c6.87-1.648,13.975-3.35,21.066-3.594c2.186-0.066,9.425,0.084,10.958,5.263c0.998,3.372-1.424,6.856-4.21,8.423
							c-2.606,1.465-5.622,1.84-8.54,2.204l-0.88,0.111c-18.089,2.324-35.834,9.951-49.967,21.476c-2.19,1.786-4.343,3.7-6.425,5.55
							c-3.36,2.988-6.835,6.078-10.574,8.726C319.63,120.197,312.909,122.672,306.544,122.672z"/>
						<path style="fill:#51518C;" d="M316.535,120.515l-0.841-0.119c1.501-10.581,0.173-21.409-3.839-31.313
							c-4.012-9.906-10.594-18.605-19.035-25.158l0.521-0.67c8.559,6.645,15.233,15.466,19.302,25.51
							C316.71,98.806,318.056,109.785,316.535,120.515z"/>
						<path style="fill:#51518C;" d="M330.4,112.074l-0.83-0.181c2.03-9.318,1.386-19.398-1.812-28.382
							c-3.254-9.138-8.72-16.807-16.245-22.793l0.529-0.665c7.651,6.087,13.208,13.884,16.515,23.173
							C331.809,92.358,332.463,102.603,330.4,112.074z"/>
						<path style="fill:#51518C;" d="M340.87,103.086l-0.843-0.109c1.718-13.167-1.253-26.235-8.365-36.796l0.705-0.475
							C339.595,76.438,342.615,89.714,340.87,103.086z"/>
						<path style="fill:#51518C;" d="M350.428,95.738l-0.838-0.138c1.388-8.401,0.064-16.978-3.828-24.801l0.76-0.378
							C350.495,78.406,351.845,87.16,350.428,95.738z"/>
						<path style="fill:#51518C;" d="M358.79,90.679l-0.808-0.262c2.125-6.557,0.763-13.801-3.643-19.377l0.667-0.526
							C359.588,76.312,361.003,83.851,358.79,90.679z"/>
						<path style="fill:#51518C;" d="M368.017,86.141l-0.835-0.163c1.061-5.464,0.003-11.321-2.901-16.07l0.725-0.443
							C368.021,74.392,369.117,80.47,368.017,86.141z"/>
						<path style="fill:#51518C;" d="M375.887,83.279l-0.775-0.349c2.151-4.795,1.529-10.63-1.583-14.865l0.685-0.503
							C377.504,72.04,378.16,78.208,375.887,83.279z"/>
						<path style="fill:#51518C;" d="M385.89,80.566l-0.81-0.256c1.518-4.821,0.592-10.336-2.42-14.395l0.682-0.506
							C386.513,69.682,387.49,75.49,385.89,80.566z"/>
						<path style="fill:#51518C;" d="M394.604,79.059l-0.798-0.292c1.833-4.999,1.236-10.21-1.636-14.295l0.695-0.49
							C395.9,68.299,396.534,73.794,394.604,79.059z"/>
						<path style="fill:#51518C;" d="M400.175,78.412l-0.825-0.207c1.179-4.687,0.814-9.729-1.027-14.198l0.785-0.324
							C401.019,68.319,401.397,73.55,400.175,78.412z"/>
						<path style="fill:#51518C;" d="M342.425,78.957c-3.754,0-7.269-0.339-10.667-1.011c-2.801-0.553-5.585-1.362-8.277-2.144
							c-3.265-0.949-6.641-1.93-10.043-2.449c-7.197-1.097-13.542,0.393-17.409,4.083l-0.587-0.614
							c4.061-3.876,10.667-5.446,18.124-4.309c3.457,0.527,6.86,1.516,10.152,2.473c2.674,0.777,5.439,1.581,8.204,2.127
							c9.048,1.786,18.952,1.182,32.114-1.956c3.95-0.942,7.937-2.039,11.793-3.1c6.462-1.777,13.143-3.615,19.864-4.785
							c3.573-0.621,8.655-1.069,11.545,2.21l-0.637,0.563c-2.609-2.96-7.392-2.521-10.762-1.936
							c-6.681,1.163-13.342,2.996-19.785,4.768c-3.863,1.062-7.858,2.162-11.821,3.107C355.87,77.978,348.802,78.957,342.425,78.957
							z"/>
						<path style="fill:#51518C;" d="M315.582,106.153c-2.841,0-5.39-0.551-7.63-1.654l0.375-0.762
							c4.412,2.172,10.135,2.085,17.009-0.258c8.266-2.819,15.894-7.648,23.271-12.318c9.491-6.009,19.306-12.222,30.509-14.135
							c3.089-0.527,6.307-0.729,9.418-0.926c6.142-0.387,12.492-0.787,17.874-3.738l0.213,0.851
							c-5.549,3.041-11.8,3.342-18.034,3.735c-3.089,0.195-6.284,0.397-9.329,0.916c-11.035,1.883-20.777,8.051-30.197,14.014
							c-7.419,4.697-15.091,9.554-23.452,12.406C321.954,105.53,318.603,106.153,315.582,106.153z"/>
					</g>
					<g>
						<path style="fill:#87AD63;" d="M303.067,123.293c-6.467,0-15.203-8.581-21.197-21.39l0,0
							c-6.889-14.72-7.172-28.643-0.645-31.697c3.231-1.515,7.531-0.091,12.106,4.002c4.389,3.926,8.586,9.893,11.818,16.801
							c3.233,6.907,5.125,13.952,5.328,19.838c0.212,6.135-1.451,10.347-4.683,11.859
							C304.947,123.101,304.032,123.293,303.067,123.293z M283.409,101.182c6.27,13.395,16.193,22.542,21.665,19.984
							c2.539-1.188,3.889-4.929,3.705-10.261c-0.195-5.661-2.03-12.472-5.168-19.176c-3.138-6.704-7.191-12.477-11.413-16.255
							c-3.977-3.557-7.716-4.917-10.252-3.73C276.47,74.307,277.141,87.788,283.409,101.182L283.409,101.182z"/>
						
							<rect x="331.528" y="116.821" transform="matrix(0.9304 -0.3664 0.3664 0.9304 -46.6319 135.0343)" style="fill:#87AD63;" width="1.7" height="147.059"/>
						<polygon style="fill:#6A9151;" points="326.663,178.158 340.105,212.289 341.082,210.134 328.247,177.543 						"/>
					</g>
				</g>
				<path style="fill:#FDAC7E;" d="M330.964,173.435h-7.665l-0.819,6.085l2.867,2.809l2.069,5.266l3.373,0.477l3.59-7.273
					c-0.303-0.462-0.722-0.76-1.302-0.87c0.42-1.329,0.345-2.786,0-4.313L330.964,173.435z"/>
				<g>
					<g>
						<g>
							<path style="fill:#FFFFFF;" d="M397.782,248.033c0,0,4.68-2.715,4.125-15.128c-0.554-12.412-13.742-36.346-18.065-42.555
								c-4.322-6.208-12.229-13.006-19.524-8.665c-7.296,4.341-6.814,11.903-5.669,16.711c1.144,4.808,13.902,33.148,13.902,33.148
								L397.782,248.033z"/>
							<path style="fill:#D5F3FF;" d="M388.885,220.88l-12.468-2.66v-6.483l-17.054-11.118c1.526,4.23,4.985,12.322,7.981,19.175
								c3.274,1.313,7.496,2.741,11.067,3.081c0.286,0.027,0.557,0.041,0.831,0.057v1.023c0,0,0.582,0.914,3.786,2.515
								c3.204,1.601,5.856,1.641,5.856,1.641l-6.439-5.217C386.732,222.507,388.885,220.88,388.885,220.88z"/>
						</g>
						<g>
							<path style="fill:#626297;" d="M397.782,248.033l-11.886-7.768l-3-3.038l-0.178-8.312l-6.965-4.407l-5.237,0.474
								l-1.805-2.076c-0.383-0.869-0.78-1.774-1.189-2.708l12.675-1.172l11.587,10.391l10.119,3.434
								c0.001,0.017,0.003,0.036,0.004,0.053C402.461,245.318,397.782,248.033,397.782,248.033z M395.743,212.488
								c-2.264-5.108-4.822-10.095-7.085-14.167l-10.247-0.664l-17.58,6.779c1.127,2.809,2.561,6.214,4.038,9.651l2.127,1.751
								l15.095-5.929L395.743,212.488z M382.253,188.252c-4.505-5.497-11.46-10.419-17.935-6.567
								c-6.182,3.678-6.774,9.663-6.117,14.332l9.32-5.667L382.253,188.252z"/>
							<g>
								<path style="fill:#51518C;" d="M388.885,228.112l-6.439-5.217c0.645-0.058,1.235-0.147,1.783-0.251l-4.032-3.616h0
									l-11.981,1.108c3.131,1.21,6.931,2.43,10.196,2.741c0.286,0.027,0.557,0.041,0.831,0.057v1.023c0,0,0.582,0.914,3.786,2.515
									C386.233,228.072,388.885,228.112,388.885,228.112z"/>
								<path style="fill:#51518C;" d="M376.417,211.737l-12.828-8.363l-2.756,1.063c0.728,1.814,1.584,3.879,2.497,6.04
									c0.029,0.07,0.059,0.14,0.089,0.21c0.149,0.353,0.3,0.708,0.452,1.065c0.055,0.128,0.11,0.257,0.165,0.386
									c0.124,0.29,0.248,0.581,0.373,0.873c0.083,0.193,0.166,0.387,0.249,0.581c0.071,0.165,0.142,0.331,0.213,0.497l2.127,1.75
									l9.42-3.7V211.737z"/>
							</g>
						</g>
					</g>
					<g>
						<path style="fill:#FDAC7E;" d="M351.652,201.859l-7.416-7.04l-5.311-8.22l-7.532,5.61l0.28,4.719l-0.908,2.421l5.754,8.481
							c1.057-0.697,1.589-2.236,1.834-4.232c1.311,1.151,3.446,1.252,5.697,1.203l4.511,5.846L351.652,201.859z"/>
						<path style="fill:#FC9769;" d="M351.421,201.639l-4.485-4.258l-4.207,7.419c0.433,0.009,0.873,0.009,1.321-0.001l2.379,3.083
							L351.421,201.639z"/>
					</g>
					<g>
						<g>
							<path style="fill:#FFFFFF;" d="M348.746,196.158l19.359,16.244l3.852,8.312l7.298,0.242l18.526,27.077
								c0,0-10.141,9.134-20.863,2.272c-10.723-6.862-21.96-21.833-21.96-21.833l-5.913-3.963l-4.194-17.772L348.746,196.158z"/>
							<g>
								<path style="fill:#D5F3FF;" d="M348.438,221.938l0.607,2.57l5.913,3.963c0,0,0.606,0.807,1.662,2.122
									c0.225-0.024,0.438-0.046,0.679-0.071c7.148-0.748,13.216-6.014,13.216-6.014L348.438,221.938z"/>
								<path style="fill:#D5F3FF;" d="M357.632,214.173l-12.469-6.113l0.933,3.954c0.756,0.27,1.724,0.592,2.974,0.969
									C353.476,214.314,357.632,214.173,357.632,214.173z"/>
							</g>
						</g>
						<g>
							<g>
								<path style="fill:#626297;" d="M379.693,221.595l-0.986-0.657l-6.75-0.224l-0.023-0.05l-2.084,1.273l0.279,10.662
									l-8.115,4.322c2.578,2.852,5.662,6.022,8.909,8.832l9.273-7.584l1.54-11.055l0.981-1.098L379.693,221.595z"/>
								<path style="fill:#626297;" d="M365.367,215.243l2.811-2.683l-0.073-0.158l-7.651-6.421l-2.467,10.078l-9.887,4.443
									l0.945,4.006l5.913,3.963c0,0,0.26,0.345,0.73,0.947l6.349-4.299L365.367,215.243z"/>
								<polygon style="fill:#626297;" points="348.438,211.091 350.899,208.828 354.289,200.809 348.746,196.158 344.851,206.737 
									346.692,214.536 								"/>
								<g>
									<polygon style="fill:#626297;" points="378.707,220.938 379.693,221.595 379.256,220.956 									"/>
									<path style="fill:#626297;" d="M397.782,248.033l-15.064-22.017l-0.981,1.098l-0.151,1.085l1.132,0.716l0.178,8.312
										l6.488,6.57l-0.033,8.561C394.34,251.126,397.782,248.033,397.782,248.033z"/>
								</g>
							</g>
							<g>
								<path style="fill:#51518C;" d="M369.93,224.982c0.378-0.294,0.586-0.474,0.586-0.474l-0.6-0.07L369.93,224.982z"/>
								<path style="fill:#51518C;" d="M355.011,228.541c0.025,0.033,0.064,0.084,0.106,0.139c0.017,0.023,0.035,0.046,0.055,0.072
									c0.033,0.043,0.076,0.098,0.116,0.151c0.076,0.098,0.164,0.212,0.266,0.342c0.027,0.035,0.051,0.066,0.08,0.103
									c0.017,0.022,0.038,0.048,0.056,0.071l6.349-4.299l0.519-1.538l-14.118-1.644l0.607,2.57l5.913,3.963
									c0,0,0.017,0.023,0.044,0.058C355.005,228.533,355.009,228.538,355.011,228.541z"/>
								<path style="fill:#51518C;" d="M348.438,211.091l1.011-0.929l-4.286-2.101l0.933,3.954c0.45,0.161,0.986,0.342,1.6,0.54
									L348.438,211.091z"/>
							</g>
						</g>
					</g>
				</g>
			</g>
		</g>
	</g>
</g>
</svg>
