<?xml version="1.0" encoding="UTF-8" standalone="no"?>
<!-- Created with Inkscape (http://www.inkscape.org/) -->

<svg
   version="1.1"
   id="svg2"
   width="1466.6667"
   height="1066.6667"
   viewBox="0 0 1466.6667 1066.6667"
   sodipodi:docname="3425201_59903.eps"
   xmlns:inkscape="http://www.inkscape.org/namespaces/inkscape"
   xmlns:sodipodi="http://sodipodi.sourceforge.net/DTD/sodipodi-0.dtd"
   xmlns="http://www.w3.org/2000/svg"
   xmlns:svg="http://www.w3.org/2000/svg">
  <defs
     id="defs6" />
  <sodipodi:namedview
     id="namedview4"
     pagecolor="#ffffff"
     bordercolor="#000000"
     borderopacity="0.25"
     inkscape:showpageshadow="2"
     inkscape:pageopacity="0.0"
     inkscape:pagecheckerboard="0"
     inkscape:deskcolor="#d1d1d1" />
  <g
     id="g8"
     inkscape:groupmode="layer"
     inkscape:label="ink_ext_XXXXXX"
     transform="matrix(1.3333333,0,0,-1.3333333,0,1066.6667)">
    <g
       id="g10"
       transform="scale(0.1)">
      <path
         d="M 11000,0 H 0 V 8000 H 11000 V 0"
         style="fill:#ffffff;fill-opacity:1;fill-rule:nonzero;stroke:none"
         id="path12" />
      <path
         d="m 5219.64,1558.82 c -281.93,-0.84 -563.86,-7.62 -845.28,-38.92 -106.12,-11.8 -209.99,-37.76 -316.35,-48.23 -212.44,-20.92 -421.08,-59.94 -634.26,-77.94 -171.68,-14.49 -344.08,-23.04 -515.26,-41.43 -160.49,-17.24 -338.16,-13.27 -497.42,15.22 -117.9,21.08 -236.33,32.96 -352.25,66.83 -129.68,37.89 -270.55,64.97 -405.66,64 -192.65,-1.4 -380.28,-1.55 -564.65,-68.46 -64.72,-23.47 -143.947,-62.08 -193.1,-111.36 C 782.898,1205.71 767.668,924.211 880.012,807.199 1069.22,610.262 1473.06,533 1738.28,529.352 c 290.63,-4 572.96,17.57 864.01,30.257 270.45,11.793 540.23,28.563 811.13,27.973 553.28,-1.203 1106.64,0 1658.92,36.957 518.89,34.731 1039.08,22.801 1559.1,22.801 533.26,0 1062.91,-4.192 1592.32,-75.059 230.67,-30.879 465.67,-41.691 697.5,-63.32 207.63,-19.379 407.15,0.379 613.95,18.289 173.64,15.031 346.15,59.629 503.89,135.02 124.9,59.671 347.5,245.07 385.8,387.52 107.4,399.34 -1513.01,389.74 -1761.79,388.84 -278.32,-1 -558.84,-10.15 -836.94,0.46 -116.98,4.46 -232.23,27.33 -346.4,52.37 -113.73,24.97 -228.31,18.62 -343.63,29.11 -480.92,43.73 -962.91,37.34 -1445.36,37.34 -156.99,0 -314.07,1.38 -471.14,0.91"
         style="fill:#f1f2f2;fill-opacity:1;fill-rule:nonzero;stroke:none"
         id="path14" />
      <path
         d="m 3653.3,4539.12 c -2.79,-0.28 -5.57,-0.78 -8.28,-1.55 -25.39,-7.2 -30.67,-33.03 -50.62,-45.37 -8.89,-5.5 -39.85,-1.04 -36.65,-18.08 1.23,-6.28 3.57,-27.78 7.26,-49.2 -3.54,-17.73 -6.29,-35.66 -11.48,-52.99 -13.15,-43.83 -92.57,-120.92 -46.9,-164.08 8.84,-8.35 17.93,-16.86 29.12,-21.62 9.15,-3.88 19.21,-5.02 29.12,-5.65 7.73,-0.5 19.88,-3.14 25.56,1.82 5.97,5.22 9.41,24.89 12.29,32.49 8.24,21.74 16.47,43.49 24.7,65.23 8.07,21.33 19.57,45.69 41.96,50.07 4.89,0.95 10.01,0.83 14.73,2.44 5.32,1.81 9.67,5.68 13.74,9.57 14.91,14.24 29.05,30.03 40.29,47.41 20.06,31.07 -2.82,84.34 -13.46,115.07 -2.65,7.65 -5.66,15.49 -11.36,21.24 -9.29,9.33 -23.53,11.16 -36.63,12.46 -7.76,0.78 -15.68,1.54 -23.39,0.74"
         style="fill:#e8c5bf;fill-opacity:1;fill-rule:nonzero;stroke:none"
         id="path16" />
      <path
         d="m 3353.05,3781.14 c 98.62,82.59 185.83,178.7 258.68,284.71 28.18,41 82.16,99.35 58.06,151.86 -24.7,53.84 -139.18,82.28 -190.64,93.73 -89.48,-150.4 -243.3,-419.27 -456.56,-267.9 -55.66,39.51 -96.51,106.94 -163.87,117.92 -42.56,6.95 -86.85,-12.46 -115.94,-44.3 -113.63,-124.45 -5.92,-272.52 92.43,-365.15 104.01,-97.92 271.05,-117.5 398.9,-53.53 38.14,19.08 72.62,44.7 105.65,71.68 4.45,3.63 8.88,7.29 13.29,10.98"
         style="fill:#ebb044;fill-opacity:1;fill-rule:nonzero;stroke:none"
         id="path18" />
      <path
         d="m 1980.28,6287.79 c 0,395.76 319.55,716.6 713.75,716.6 394.19,0 713.75,-320.84 713.75,-716.6 0,-395.76 -319.56,-716.58 -713.75,-716.58 -394.2,0 -713.75,320.82 -713.75,716.58"
         style="fill:#474ebb;fill-opacity:1;fill-rule:nonzero;stroke:none"
         id="path20" />
      <path
         d="m 3046.18,6136.46 c -55.66,0 -103.82,-32.72 -126.22,-79.93 l -301.54,40.85 c -2.38,54.72 -26.75,103.81 -64.49,138.66 l 170.47,246.25 c 19.98,-8.49 41.92,-13.19 64.96,-13.19 91.77,0 166.45,74.63 166.45,166.35 0,91.73 -74.68,166.36 -166.45,166.36 -91.79,0 -166.46,-74.63 -166.46,-166.36 0,-39.26 13.68,-75.37 36.52,-103.86 l -175.46,-253.45 c -20.76,7.26 -43.04,11.23 -66.24,11.23 -110.78,0 -200.89,-90.07 -200.89,-200.79 0,-110.7 90.11,-200.77 200.89,-200.77 84.55,0 157.06,52.47 186.66,126.54 l 304.24,-41.23 c 11.35,-65.62 68.71,-115.68 137.56,-115.68 76.98,0 139.6,62.58 139.6,139.51 0,76.94 -62.62,139.51 -139.6,139.51"
         style="fill:#ffffff;fill-opacity:1;fill-rule:nonzero;stroke:none"
         id="path22" />
      <path
         d="m 6494.52,4396.65 c 2.65,0.73 5.34,1.26 8.1,1.52 25.67,2.44 39.64,-19.22 62.17,-23.39 10.04,-1.87 36.67,13.16 39.78,-3.5 1.1,-6.15 6.59,-26.57 10.81,-47.38 9.5,-14.91 18.36,-30.27 29.22,-44.2 27.51,-35.28 127.15,-77.38 100.82,-132.85 -5.09,-10.74 -10.35,-21.71 -18.87,-30 -6.95,-6.78 -15.71,-11.38 -24.52,-15.47 -6.85,-3.19 -16.99,-9.89 -23.92,-7.39 -7.29,2.64 -17.39,19.33 -22.71,25.25 -15.19,16.88 -30.39,33.77 -45.59,50.66 -14.9,16.56 -34.01,34.68 -55.94,30.74 -4.8,-0.85 -9.42,-2.79 -14.29,-2.99 -5.5,-0.23 -10.82,1.75 -15.9,3.85 -18.63,7.69 -37.11,17.07 -53.49,28.92 -29.28,21.2 -27.3,77.81 -28.49,109.58 -0.29,7.91 -0.33,16.11 2.83,23.37 5.15,11.8 17.47,18.5 28.95,24.33 6.79,3.45 13.74,6.95 21.04,8.95"
         style="fill:#e8c5bf;fill-opacity:1;fill-rule:nonzero;stroke:none"
         id="path24" />
      <path
         d="m 7050.49,3780.55 c -28.48,2.16 -57.35,4.4 -84.24,14.02 -21.44,7.68 -40.97,19.8 -59.98,32.32 -117.95,77.63 -223.69,173.74 -312.19,283.76 36.71,55.37 84.49,103.34 139.7,140.28 91.41,-71.42 188.51,-135.55 290.09,-191.57 20.77,-11.46 42.02,-22.7 65.09,-28.21 33.25,-7.95 68.04,-3.54 101.94,0.89 131.44,17.21 262.88,34.42 394.32,51.62 79.31,10.38 161.57,20.55 237.95,-3.15 211.82,-65.71 160.11,-341.38 -46.18,-357.34 -231.62,-17.92 -494.2,39.73 -726.5,57.38"
         style="fill:#474ebb;fill-opacity:1;fill-rule:nonzero;stroke:none"
         id="path26" />
      <path
         d="m 2578.66,980.59 -5,-57.938 -38.25,-47.121 c 0,0 -10.98,-70.711 9.93,-83.133 20.91,-12.406 347.26,-51.148 347.26,-51.148 l 33.63,50.172 -26.97,55.398 -172.49,78.891 -59.25,65.789 -88.86,-10.91"
         style="fill:#3b455a;fill-opacity:1;fill-rule:nonzero;stroke:none"
         id="path28" />
      <path
         d="m 2919.83,1105.76 -5,-57.94 -37.69,-47.17 c 0,0 -10.9,-70.701 9.65,-83.091 20.55,-12.379 341.6,-50.68 341.6,-50.68 l 33.16,50.223 -26.46,55.347 -169.61,78.651 -58.2,65.71 -87.45,-11.05"
         style="fill:#3b455a;fill-opacity:1;fill-rule:nonzero;stroke:none"
         id="path30" />
      <path
         d="m 2527.16,2117.04 c 28.02,-58.95 53.25,-112.44 57.81,-188.37 4.49,-74.69 -9.47,-149.06 -20.06,-223.12 -36.63,-256.32 -33.03,-516.48 -29.36,-775.359 89.3,-3.89 178.7,-5.75 268.08,-5.562 15.21,0.031 32.34,0.941 42.45,12.281 10.14,11.371 9.07,28.539 7.38,43.68 -20.51,183.94 -19.08,370.04 -16.31,554.84 1.37,91.03 4.5,168.85 23.15,256.68 18.54,87.26 15.24,177.68 9.25,266.11 -14.66,216.6 -58.54,429.18 -70.62,645.7 -2.2,39.26 -5.91,81.48 -31.33,111.49 -30.55,36.08 -82.93,43.45 -130.21,43.43 -129.99,-0.07 -276.68,-20.57 -283.21,-178.21 -2.18,-52.55 11.67,-104.33 26.37,-154.83 33.69,-115.69 70.31,-232.53 116.98,-343.74 9.71,-23.14 19.83,-44.41 29.63,-65.02"
         style="fill:#3b455a;fill-opacity:1;fill-rule:nonzero;stroke:none"
         id="path32" />
      <path
         d="m 2889.58,2216.58 c 26.71,-60.27 50.75,-114.93 51.68,-190.99 0.92,-74.82 -17.75,-148.41 -32.81,-221.87 -52.11,-254.19 -61.7,-514.21 -71.16,-772.97 94.64,-8.28 189.48,-14.55 284.42,-18.78 16.14,-0.72 34.38,-0.65 45.71,10.18 11.35,10.86 11.09,28.05 10.08,43.26 -15.29,229.86 -32.52,460.44 -16.34,690.22 6.19,87.94 17.27,175.55 22.23,263.57 9.64,171.4 -4.14,342.99 -25.03,513.24 -12.86,104.86 5.36,329.36 -100.73,392.82 -48.03,28.74 -108.77,32.99 -164.92,24.4 -28.65,-4.39 -57.23,-12.09 -81.44,-27.12 -46.66,-28.97 -71.31,-82.13 -76.33,-134.51 -5.03,-52.39 7,-104.79 20.02,-155.95 29.82,-117.22 62.68,-235.71 106.5,-349.1 9.12,-23.59 18.78,-45.33 28.12,-66.4"
         style="fill:#3b455a;fill-opacity:1;fill-rule:nonzero;stroke:none"
         id="path34" />
      <path
         d="m 2485.28,4178.09 c -80.74,-60.24 -134.17,-164.13 -140.76,-271.95 -8.01,-130.89 -42.07,-262.42 -53.4,-393.84 -22.37,-259.65 -16.74,-520.95 14.21,-779.67 3.43,-28.64 8.72,-60.61 32,-77.64 26.35,-19.28 62.99,-10.53 94.32,-1.31 246.39,72.51 498.84,124.4 753.85,154.92 15.27,1.82 -49.98,616.09 -56.66,672.33 -23.79,200.22 -61.28,408.19 -188.81,572.03 -53.89,69.24 -121.82,130.35 -204.16,160.63 -95.15,34.99 -182.56,15.24 -250.59,-35.5"
         style="fill:#ebb044;fill-opacity:1;fill-rule:nonzero;stroke:none"
         id="path36" />
      <path
         d="m 2853.7,4596.54 c 3.33,-52.84 5.89,-109.2 -20.53,-155.08 -22.5,-39.1 -62.56,-64.28 -93.35,-97.26 -18.74,-20.09 -34.33,-46.23 -37.84,-73.89 -3.46,-27.29 11.2,-50.58 11.04,-77.9 -0.02,-2.56 -0.13,-5.22 -1.33,-7.48 -1.28,-2.41 -3.65,-4.04 -6.06,-5.34 -12.34,-6.7 -27.04,-6.94 -41.08,-7.03 -16.58,-0.1 -34.71,-2.32 -51.15,-0.3 -21.51,2.63 -17.13,6.98 -19.15,28.88 -3.03,32.68 -7.45,65.47 -17.99,96.67 -21.76,64.39 -68.06,119.4 -81.18,186.88 -14.52,74.66 7.18,147.83 30.86,218.82 10.58,31.76 22.21,64.13 43.98,89.57 47.84,55.88 160.03,73.74 213.63,16.64 63.72,-67.87 64.49,-123.51 70.15,-213.18"
         style="fill:#e8c5bf;fill-opacity:1;fill-rule:nonzero;stroke:none"
         id="path38" />
      <path
         d="m 2836.74,4632.77 c 34.73,-47.61 40.39,-114.81 14.08,-167.56 40.36,28.18 59.37,78.35 67.5,126.9 4.47,26.71 6.36,53.99 3.29,80.89 -9.68,84.94 -77.01,163.44 -161.75,174.71 -56.05,7.46 -55.83,-64.01 -33.98,-98.77 28.73,-45.74 79.27,-72.87 110.86,-116.17"
         style="fill:#3b455a;fill-opacity:1;fill-rule:nonzero;stroke:none"
         id="path40" />
      <path
         d="m 2688.3,4892.11 c -31.4,15.03 -67.68,15.89 -102.37,12.93 -47.53,-4.06 -143.15,-18.11 -199.61,-53.52 -31.85,68.1 -123.76,119.56 -190.83,84.24 -39.28,-20.68 -56.27,-65.64 -38.15,-100.89 4.54,-8.81 11,-16.99 19.42,-23.61 7.05,-5.55 15.45,-10 21.47,-16.31 22.82,-23.91 1.71,-57.84 -15.1,-84.88 -18.96,-30.54 -31.97,-63.56 -38.37,-97.4 -3.62,-19.11 -5.01,-39.25 3.74,-57.2 8.75,-17.95 30.01,-33 53.57,-31.98 42.67,1.84 51.26,38.18 53.47,71.21 2.55,38.02 8.95,71.39 26.2,106.83 6.32,12.98 14.96,26.66 28.9,30.37 2.67,0.72 5.36,0.99 8.04,0.98 -9.37,-31.77 -14.45,-63.95 -9.52,-99.32 9.83,-70.46 35.9,-139.19 79.04,-195.77 43.15,-56.57 103.77,-100.5 172.32,-119.56 4.85,43.37 -40.89,76.21 -49.21,119.05 -4.5,23.19 2.64,47.43 14.76,67.69 12.14,20.27 28.98,37.23 45.65,53.97 28.73,28.85 57.47,57.71 86.2,86.57 23.44,23.54 47.1,47.35 64.62,75.58 35.64,57.44 33.98,138.36 -34.24,171.02"
         style="fill:#3b455a;fill-opacity:1;fill-rule:nonzero;stroke:none"
         id="path42" />
      <path
         d="m 6845.84,5356.11 c 0,-934.55 -757.6,-1692.15 -1692.15,-1692.15 -934.54,0 -1692.14,757.6 -1692.14,1692.15 0,934.54 757.6,1692.14 1692.14,1692.14 934.55,0 1692.15,-757.6 1692.15,-1692.14"
         style="fill:#d34e4e;fill-opacity:1;fill-rule:nonzero;stroke:none"
         id="path44" />
      <path
         d="m 6091.08,4400.37 c -184.3,-187.91 -413.32,-313.66 -662.57,-366.96 63.42,62.59 136.75,142.54 210.27,239.05 115.59,151.75 207.77,313.36 273.98,480.34 16.8,42.37 31.9,85.09 45.35,128.13 h 437.36 c -65.55,-178.33 -168.36,-341.87 -304.39,-480.56 z m -863.22,-347.92 v 828.48 h 573.83 c -7.92,-22.99 -16.36,-45.87 -25.34,-68.64 -60.61,-153.6 -145.31,-302.7 -251.76,-443.15 -112.17,-147.99 -225.48,-255.44 -296.73,-316.69 z m -422.48,312.78 c -107.2,140.74 -192.53,290.21 -253.61,444.26 -9.4,23.7 -18.22,47.51 -26.47,71.44 h 554.22 v -811.51 c -70.56,62.42 -172.34,162.17 -274.14,295.81 z m -589.07,35.14 c -136.03,138.69 -238.84,302.23 -304.39,480.56 h 456.99 c 13.43,-43.04 28.53,-85.76 45.33,-128.13 66.22,-166.98 158.4,-328.59 273.98,-480.34 75.51,-99.13 150.81,-180.77 215.4,-244.08 -258.83,50.11 -496.93,177.89 -687.31,371.99 z m -332.27,1346.65 h 440.23 c -23.5,-112.12 -35.35,-227.26 -35.35,-344.58 0,-124.68 13.37,-248.46 39.91,-370.26 h -462.68 c -25.15,104.74 -38.11,213.32 -38.11,323.92 0,134.38 19.11,265.76 56,390.92 z m 332.27,564.83 c 182.63,186.19 409.15,311.35 655.77,365.47 -56.48,-51.06 -119.01,-113.8 -181.64,-188.46 -116.33,-138.68 -209.09,-290.1 -275.71,-450.05 -19.22,-46.14 -36.22,-93.03 -51.07,-140.55 h -425.07 c 65.44,152.36 158.91,292.44 277.72,413.59 z m 863.21,342.58 v -756.17 h -559.34 c 9.19,26.35 19.1,52.47 29.8,78.32 60.12,145.26 144.13,283.13 249.72,409.82 103.87,124.63 208.77,214.09 279.82,268.03 z M 4437.27,5402.44 c 0,117.67 13.1,232.88 39.08,344.58 h 603.17 v -714.84 h -598.34 c -29.18,121.65 -43.91,245.51 -43.91,370.26 z m 1413.37,344.58 c 25.98,-111.7 39.11,-226.91 39.11,-344.58 0,-124.75 -14.74,-248.61 -43.92,-370.26 h -617.97 v 714.84 z m -622.78,922.21 c 69.47,-50.86 182.65,-143.59 295.97,-278.68 106.46,-126.92 191.22,-265.15 251.9,-410.85 11.19,-26.88 21.55,-54.04 31.11,-81.44 h -578.98 z m 863.22,-357.38 c 118.81,-121.15 212.27,-261.23 277.71,-413.59 h -405.44 c -14.84,47.52 -31.86,94.41 -51.07,140.55 -66.63,159.95 -159.39,311.37 -275.72,450.05 -60.18,71.75 -120.27,132.49 -175,182.44 236.44,-57.06 453.39,-179.88 629.52,-359.45 z m 388.28,-955.75 c 0,-110.6 -12.97,-219.18 -38.13,-323.92 h -443.06 c 26.54,121.8 39.92,245.58 39.92,370.26 0,117.32 -11.85,232.46 -35.36,344.58 h 420.62 c 36.89,-125.16 56.01,-256.54 56.01,-390.92 z m 32.48,585.01 c -74.25,178.97 -180.52,339.68 -315.86,477.68 -135.35,138 -292.98,246.35 -468.51,322.05 -181.78,78.38 -374.82,118.13 -573.78,118.13 -198.95,0 -392,-39.75 -573.77,-118.13 -175.53,-75.7 -333.15,-184.05 -468.5,-322.05 -135.35,-138 -241.62,-298.71 -315.86,-477.68 -76.89,-185.33 -115.87,-382.15 -115.87,-585.01 0,-202.84 38.98,-399.66 115.87,-585 74.24,-178.96 180.51,-339.68 315.86,-477.67 135.35,-138 292.97,-246.35 468.5,-322.05 181.77,-78.38 374.82,-118.13 573.77,-118.13 198.96,0 392,39.75 573.78,118.13 175.53,75.7 333.16,184.05 468.51,322.05 135.34,137.99 241.61,298.71 315.86,477.67 76.87,185.34 115.86,382.16 115.86,585 0,202.86 -38.99,399.68 -115.86,585.01"
         style="fill:#ffffff;fill-opacity:1;fill-rule:nonzero;stroke:none"
         id="path46" />
      <path
         d="m 8778.58,1008.52 c -16.26,-19.129 -36.66,-33.161 -54.93,-49.84 -66.48,54.5 -127.26,109.72 -181.15,178.23 49.55,5.87 59.37,48.84 116.5,3.03 18.5,-14.82 87.64,-110.34 119.58,-131.42"
         style="fill:#e8c5bf;fill-opacity:1;fill-rule:nonzero;stroke:none"
         id="path48" />
      <path
         d="m 8683.51,984.969 c -12.47,-9.59 -13.53,-20.989 -13.51,-34.977 0.02,-8.121 3.01,-16.363 1.04,-24.351 -1.98,-7.981 -6.19,-13.75 -11.33,-20.692 -27.12,-36.519 -98.74,-112.347 -5.36,-122.25 84.8,-9 154.8,108.492 193.11,178.301 2.52,4.59 5.58,9.082 5.18,14.492 -0.4,5.41 -2.85,11.047 -6.09,16.137 -17.97,28.311 -39.7,64.441 -76.51,44.161 -15.69,-8.65 -17.91,-27.77 -34.61,-36.849 -13.68,-7.453 -39.45,-4.382 -51.92,-13.972"
         style="fill:#3b455a;fill-opacity:1;fill-rule:nonzero;stroke:none"
         id="path50" />
      <path
         d="m 8422.71,2422.99 c 10.63,-168.6 -138.75,-415.25 -95.69,-552.7 90.1,-287.5 184.57,-451.82 348.97,-679.57 11.74,-16.28 50.64,-52.67 67.39,-73.26 -40.24,-52.56 -86.84,-89.42 -138.86,-133.73 -240.96,205.54 -455.98,338.51 -611.56,652.6 -122.99,248.3 -166.27,651.38 -230.3,944.27 -10.61,48.51 -26.71,118.44 5.39,162.58 24.62,33.86 59.34,48.66 103.33,59.3 117.65,28.49 278.54,90.16 389,15.86 120.74,-81.21 154.17,-265.8 162.33,-395.35"
         style="fill:#8ec3cb;fill-opacity:1;fill-rule:nonzero;stroke:none"
         id="path52" />
      <path
         d="m 7322.9,852.48 c -25.36,-5.23 -50.9,-2.691 -76.29,-5.449 -20.38,88.449 -36.44,175.159 -37.56,267.189 44.58,-29.22 78.35,-1.77 95.49,-76.97 5.55,-24.35 4.26,-146.711 18.36,-184.77"
         style="fill:#e8c5bf;fill-opacity:1;fill-rule:nonzero;stroke:none"
         id="path54" />
      <path
         d="m 7230.54,894.242 c -15.87,-0.012 -23.79,-9.262 -32.56,-20.133 -5.09,-6.308 -7.57,-15.257 -13.52,-20.82 -5.94,-5.57 -13.07,-7.258 -21.53,-9.359 -44.56,-11.039 -148.58,-26.828 -80.71,-92.91 61.63,-60 189.56,-10.868 263.6,20.16 4.86,2.039 10.23,3.75 13.43,8.23 3.19,4.5 4.59,10.649 5.3,16.602 3.94,33.129 9.32,77.008 -32.35,84.047 -17.78,3.004 -32.67,-10.758 -51.7,-7.368 -15.6,2.778 -34.08,21.559 -49.96,21.551"
         style="fill:#3b455a;fill-opacity:1;fill-rule:nonzero;stroke:none"
         id="path56" />
      <path
         d="m 7985.71,2183.56 c -121.95,-121.75 -470.97,-211.15 -527.76,-351.31 -22.78,-56.22 -97.74,-472.04 -109.16,-764.8 -0.81,-20.93 8.77,-75.47 8.98,-103.118 -65.04,-18.66 -123.51,-14.742 -193.62,-19.672 -51.21,337.34 -104.31,928.12 -104.31,928.12 69.37,295.03 404.19,633.35 589.98,899.15 30.79,44.03 66.77,104.33 122.01,111.73 42.36,5.69 75.8,-9.29 113.88,-34.05 101.92,-66.27 257.83,-140.1 280.41,-272.13 24.68,-144.32 -86.71,-300.35 -180.41,-393.92"
         style="fill:#8ec3cb;fill-opacity:1;fill-rule:nonzero;stroke:none"
         id="path58" />
      <path
         d="m 7933.29,4013.6 c 112.09,-98.43 205.21,-237.96 270.8,-390.4 116.16,-269.95 160.61,-578.59 203.42,-881.24 14.25,-100.72 28.49,-201.44 42.74,-302.17 14.03,-99.1 10.53,-122.1 -70.61,-129.39 -150.39,-13.5 -308.95,-11.54 -454.5,43.02 -69.26,25.95 -135.92,64.1 -207.01,80.29 -103.39,23.56 -199.47,-23.77 -299.49,-16.84 10.41,105.84 34.04,206.11 36.37,314.95 2.33,108.94 -4.56,217.91 -14.1,326.09 -16.68,189.07 -25.38,379.04 -40.95,567.68 -11.14,135.1 -39.24,240.88 52.93,355.03 50.17,62.13 142.15,170.04 225.33,168.59 88.27,-1.55 192.41,-80.58 255.07,-135.61"
         style="fill:#474ebb;fill-opacity:1;fill-rule:nonzero;stroke:none"
         id="path60" />
      <path
         d="m 7443.36,4190.57 c 30.75,-29.06 69.43,-47.98 104.39,-71.78 34.03,-23.17 53.26,-48.78 73.76,-83.3 14.82,-24.93 32.73,-41.86 66.58,-33.45 63.82,15.86 26.37,58.75 25.41,100.59 -1.13,47.81 19.03,94.11 27.41,140.58 24.19,134.29 -80.67,337.92 -239.21,326.25 -173.35,-12.76 -151.63,-290.74 -58.34,-378.89"
         style="fill:#e8c5bf;fill-opacity:1;fill-rule:nonzero;stroke:none"
         id="path62" />
      <path
         d="m 7649.75,4421.91 c 17.37,-11.2 26.94,-35.46 17.3,-53.75 -5.16,-9.79 -14.7,-16.57 -20.6,-25.92 -17.34,-27.45 2.83,-63.93 28.23,-84.12 25.41,-20.21 57.27,-34.16 74.4,-61.74 86.42,70.02 152.55,171.47 158.59,282.53 4.35,80.15 -27.54,163.66 -87.22,217.95 -70.06,63.71 -140.9,60.2 -232.08,67.97 -37.53,3.21 -76.13,6.3 -112.18,-4.64 -32.82,-9.97 -61.33,-30.98 -93.83,-41.96 -53.81,-18.17 -122.15,-11.57 -156.82,-56.57 -20.06,-26.03 -21.28,-63.01 -10.18,-93.94 11.1,-30.92 32.84,-56.81 55.91,-80.22 31.03,-31.5 65.26,-59.86 101.99,-84.51 -17.44,11.71 42.99,79.09 56.76,82.05 32.52,6.98 84.02,-29.96 117.34,-37.91 32.08,-7.66 73.99,-6.9 102.39,-25.22"
         style="fill:#3b455a;fill-opacity:1;fill-rule:nonzero;stroke:none"
         id="path64" />
      <path
         d="m 5283.7,4545.03 526.01,-2176.3 427.37,430.25 508.1,-662.87 242.51,185.89 242.51,185.9 -508.1,662.86 526.5,300.91 -1964.9,1073.36"
         style="fill:#3b455a;fill-opacity:1;fill-rule:nonzero;stroke:none"
         id="path66" />
      <path
         d="m 6847.1,2250.57 c -27.21,-20.86 -54.41,-41.71 -81.62,-62.57 -52.65,68.69 -105.29,137.37 -157.95,206.06 -91.17,118.95 -182.35,237.89 -273.53,356.84 -21.03,27.45 -42.07,54.89 -63.1,82.32 -9.35,12.2 -24.88,10.49 -34.78,0.52 -124.64,-125.47 -249.27,-250.95 -373.9,-376.43 -8.1,-8.13 -16.18,-16.27 -24.26,-24.42 -14.21,58.76 -28.41,117.51 -42.61,176.27 -41.94,173.55 -83.89,347.09 -125.84,520.63 -50.55,209.15 -101.09,418.29 -151.64,627.43 -43.72,180.87 -87.43,361.74 -131.15,542.6 -18,74.47 -35.88,148.97 -53.97,223.42 51.37,-28.06 102.74,-56.12 154.11,-84.19 156.68,-85.58 313.37,-171.18 470.06,-256.77 188.83,-103.15 377.66,-206.3 566.49,-309.45 163.3,-89.21 326.59,-178.41 489.89,-267.62 54.21,-29.6 108.41,-59.21 162.62,-88.82 13.89,-7.59 28.08,-16.7 42.54,-25.03 -142.48,-81.43 -284.95,-162.85 -427.42,-244.28 -21.96,-12.55 -43.91,-25.1 -65.87,-37.65 -10.24,-5.85 -10.95,-22.24 -4.43,-30.75 57.15,-74.56 114.31,-149.12 171.47,-223.69 91.17,-118.95 182.35,-237.9 273.52,-356.85 16.63,-21.69 33.26,-43.39 49.9,-65.09 -122.85,-94.16 -245.69,-188.32 -368.53,-282.48 z m 416.92,291.57 c -57.15,74.56 -114.31,149.13 -171.46,223.69 -91.18,118.96 -182.35,237.9 -273.54,356.86 -16.01,20.89 -32.04,41.79 -48.05,62.69 147.06,84.05 294.11,168.1 441.17,252.14 21.95,12.55 43.9,25.1 65.86,37.65 15.67,8.95 8.42,30.75 -4.29,37.69 -65.26,35.65 -130.53,71.3 -195.79,106.95 -156.69,85.6 -313.38,171.19 -470.07,256.78 -188.83,103.15 -377.65,206.3 -566.48,309.45 -163.3,89.2 -326.59,178.4 -489.9,267.61 -54.2,29.61 -108.4,59.22 -162.61,88.83 -25.38,13.87 -50.47,29.58 -76.66,41.88 -1.16,0.54 -2.27,1.24 -3.39,1.85 -8.46,4.62 -16.02,2.93 -21.4,-1.74 -7.14,-3.39 -11.8,-10.49 -9.3,-20.84 17.47,-72.29 34.94,-144.58 52.42,-216.86 41.94,-173.55 83.88,-347.09 125.83,-520.64 50.54,-209.14 101.1,-418.28 151.65,-627.42 43.71,-180.87 87.43,-361.74 131.14,-542.61 21.36,-88.34 42.46,-176.73 64.05,-265.01 0.32,-1.26 0.61,-2.51 0.91,-3.76 4.65,-19.21 24.92,-25.38 39.02,-11.19 124.63,125.47 249.27,250.95 373.91,376.43 11.35,11.42 22.7,22.85 34.05,34.28 52.04,-67.88 104.07,-135.76 156.09,-203.64 91.18,-118.94 182.35,-237.9 273.53,-356.84 21.04,-27.44 42.07,-54.89 63.11,-82.33 7.15,-9.33 21.22,-11.74 30.75,-4.43 128.72,98.67 257.44,197.33 386.17,296.01 32.95,25.26 65.9,50.51 98.85,75.77 9.33,7.15 11.74,21.23 4.43,30.75"
         style="fill:#ffffff;fill-opacity:1;fill-rule:nonzero;stroke:none"
         id="path68" />
      <path
         d="m 6486.62,2807.22 c 0.74,2.64 1.67,5.23 2.86,7.72 11.09,23.29 36.84,24.16 51.98,41.36 6.76,7.66 7.51,38.22 23.41,32.35 5.85,-2.21 26.19,-7.99 46.23,-15.04 17.66,0.51 35.38,0.23 52.92,2.4 44.4,5.5 131.65,69.42 165.77,18.36 6.6,-9.89 13.32,-20.03 16.06,-31.6 2.25,-9.44 1.7,-19.32 0.69,-28.98 -0.78,-7.52 -0.23,-19.66 -5.93,-24.33 -6,-4.89 -25.51,-5 -33.32,-6.53 -22.29,-4.38 -44.58,-8.75 -66.88,-13.13 -21.87,-4.29 -47.23,-11.39 -55.1,-32.23 -1.72,-4.56 -2.44,-9.52 -4.76,-13.8 -2.62,-4.83 -7.05,-8.39 -11.47,-11.67 -16.16,-12.04 -33.69,-23.09 -52.26,-31.07 -33.23,-14.25 -80.8,16.5 -108.68,31.78 -6.94,3.81 -14,7.98 -18.6,14.42 -7.48,10.48 -6.91,24.49 -6.02,37.33 0.51,7.6 1.08,15.36 3.1,22.66"
         style="fill:#e8c5bf;fill-opacity:1;fill-rule:nonzero;stroke:none"
         id="path70" />
      <path
         d="m 7300.73,2968.22 c -16.46,-23.33 -33.21,-46.96 -55.27,-65.1 -17.58,-14.47 -38.02,-25 -58.52,-34.9 -127.15,-61.39 -263.91,-102.82 -403.76,-122.32 -28.67,59.91 -45.33,125.55 -48.71,191.88 108.22,41.8 213.09,92.24 313.3,150.67 20.49,11.94 41.04,24.42 57.61,41.39 23.89,24.46 37.97,56.59 51.55,87.95 52.69,121.64 105.37,243.29 158.06,364.93 31.79,73.4 65.27,149.21 124.81,202.61 165.09,148.09 375.16,-37.77 283,-223.01 -103.48,-207.99 -287.71,-403.78 -422.07,-594.1"
         style="fill:#474ebb;fill-opacity:1;fill-rule:nonzero;stroke:none"
         id="path72" />
      <path
         d="m 8638.26,6394.17 c 0,-487.75 -395.4,-883.16 -883.16,-883.16 -487.77,0 -883.18,395.41 -883.18,883.16 0,487.76 395.41,883.17 883.18,883.17 487.76,0 883.16,-395.41 883.16,-883.17"
         style="fill:#7fc5a3;fill-opacity:1;fill-rule:nonzero;stroke:none"
         id="path74" />
      <path
         d="m 8373.91,6507.98 c -65.45,112.42 -200.26,165.7 -323.08,131.87 l -0.68,-0.11 c -37.77,-14.09 -69.31,-41.43 -82.88,-84.56 -2.98,-9.49 -17.58,-5.42 -14.58,4.12 14.56,46.24 47.21,76.32 86.8,92.57 -43.26,139.73 -174.98,238.72 -319.7,227.71 -142.42,-10.84 -258.12,-121.78 -285.66,-264.08 11.97,-2.91 23.72,-6.95 35.11,-12.27 45.29,-21.17 80.45,-57.66 105.47,-101.36 4.95,-8.65 -8.12,-16.45 -13.05,-7.84 -8.23,14.39 -17.81,27.97 -28.67,40.39 -40.3,46.09 -97.91,73.54 -158.64,70.76 -61.37,-2.82 -127.49,-36.45 -168.8,-82.46 -47.34,-52.72 -72.87,-124.03 -66.56,-195.86 6.21,-70.51 41.96,-136.25 97.38,-178.64 51.4,-39.3 111.19,-57.18 174.71,-59.67 41.67,-1.62 83.37,-2.22 125.06,-2.81 119.15,-1.66 238.32,-2.14 357.48,-2.45 52.36,-0.15 104.71,-0.22 157.06,-0.26 43,-0.03 88.27,-3.56 130.63,4.82 138.54,27.39 243.4,157.73 229.59,304.63 -3.83,40.74 -16.54,80.37 -36.99,115.5"
         style="fill:#ffffff;fill-opacity:1;fill-rule:nonzero;stroke:none"
         id="path76" />
      <path
         d="m 4751.07,3145.99 c 0,-371.49 -301.15,-672.64 -672.64,-672.64 -371.49,0 -672.63,301.15 -672.63,672.64 0,371.48 301.14,672.63 672.63,672.63 371.49,0 672.64,-301.15 672.64,-672.63"
         style="fill:#7fc5a3;fill-opacity:1;fill-rule:nonzero;stroke:none"
         id="path78" />
      <path
         d="m 4511.05,3248.56 c 0,-26.13 0.04,-52.27 0,-78.4 0,-1.41 0.02,-2.82 0,-4.22 -0.03,-3.04 -0.26,-6.06 -0.36,-9.08 l -0.03,-1.04 -0.11,-0.6 c -1.17,-6.29 -3,-12.22 -4.82,-18.34 l -0.76,-2.02 c -0.93,-1.99 -1.9,-3.95 -2.95,-5.89 -1.83,-3.39 -3.9,-6.62 -6.05,-9.81 l -3.44,-4.48 c -1.25,-1.42 -2.53,-2.81 -3.85,-4.16 -1.98,-2.02 -4.03,-3.98 -6.16,-5.85 l -2.65,-2.23 -0.76,-0.54 c -4.35,-2.91 -8.74,-5.68 -13.42,-8.06 -0.9,-0.45 -1.81,-0.86 -2.72,-1.29 l -5.39,-2.02 c -4.66,-1.53 -9.38,-2.58 -14.15,-3.63 l -1.58,-0.37 -1.51,-0.03 c -3.04,-0.09 -6.04,-0.32 -9.08,-0.36 -65.01,0 -130.02,0 -195.03,0 -4.74,0 -9.48,0 -14.23,0 0,15.95 0,31.9 0,47.84 0,33.07 -2.33,64.64 -19.34,94.25 -25.79,44.89 -74.45,72.17 -125.91,72.76 -11.52,0.12 -23.03,0 -34.54,0 -13.89,0 -27.77,0 -41.65,0 0.05,2.42 -0.01,4.85 0.06,7.27 0.05,2.02 0.25,4.03 0.32,6.04 l 0.04,1.59 0.36,1.49 c 1.11,4.77 2.1,9.49 3.62,14.15 l 2.01,5.44 c 0.64,1.33 1.29,2.64 1.98,3.94 1.1,2.11 2.26,4.18 3.5,6.21 l 4.5,6.79 c 2.51,3.04 5.19,5.97 8.01,8.73 1.69,1.65 3.48,3.18 5.23,4.77 l 2.3,1.78 c 3.55,2.42 7.14,4.75 10.92,6.8 1.8,0.96 3.64,1.88 5.5,2.76 -0.48,-0.34 5.46,1.97 6.53,2.3 4.6,1.45 9.29,2.56 14.03,3.41 l 1.82,0.19 c 3.04,0.1 6.04,0.32 9.08,0.36 h 2.11 c 5.23,0.02 10.46,0 15.68,0 22.06,0 44.12,0 66.18,0 60.35,0 120.71,0 181.06,0 22.34,0 44.69,0 67.03,0 5.44,0 10.89,0.02 16.33,0 h 2.43 c 3.82,-0.04 7.61,-0.22 11.41,-0.59 l 0.83,-0.17 c 3.83,-0.82 7.62,-1.64 11.37,-2.76 1.86,-0.55 3.67,-1.25 5.51,-1.8 l 1.55,-0.44 1.27,-0.68 c 4.23,-2.2 8.42,-4.34 12.45,-6.94 l 4.6,-3.18 2.34,-1.97 c 4.61,-4.06 8.87,-8.49 12.75,-13.25 l 0.16,-0.18 0.67,-1.15 c 1.47,-2.44 3.12,-4.76 4.53,-7.23 1.06,-1.84 5.68,-12.27 4.47,-8.72 1.53,-4.21 2.9,-8.46 3.95,-12.82 0.48,-1.97 0.88,-3.95 1.25,-5.93 -0.11,0.22 0.53,-4.75 0.59,-5.91 1.11,-20.81 0.16,-41.9 0.16,-62.73 z m -354.85,-241.18 -0.03,-1.03 -0.12,-0.6 c -1.17,-6.3 -2.99,-12.22 -4.81,-18.34 l -0.76,-2.02 c -0.93,-1.99 -1.91,-3.95 -2.95,-5.89 -1.84,-3.4 -3.91,-6.62 -6.06,-9.81 l -3.43,-4.48 c -1.25,-1.42 -2.53,-2.81 -3.85,-4.16 -1.98,-2.03 -4.03,-3.98 -6.16,-5.85 l -2.65,-2.22 -0.76,-0.55 c -4.36,-2.91 -8.74,-5.68 -13.42,-8.06 -0.9,-0.45 -1.82,-0.86 -2.72,-1.29 l -5.39,-2.03 c -4.66,-1.52 -9.38,-2.57 -14.15,-3.62 l -1.59,-0.36 -1.5,-0.04 c -3.04,-0.1 -6.05,-0.32 -9.08,-0.36 -95.03,0 -190.06,0 -285.1,0 -18.96,0 -37.92,0 -56.88,0 -2.96,0 -5.93,-0.03 -8.89,0 -3.47,0.04 -6.91,0.21 -10.35,0.51 1.68,0.01 -8.47,1.69 -10.41,2.21 -2.82,0.76 -5.53,1.77 -8.31,2.6 l -1.14,0.33 -0.37,0.19 c -5.66,2.65 -10.79,5.92 -16.13,9.11 l -1.95,1.36 c -1.61,1.33 -3.2,2.7 -4.72,4.12 -3.49,3.22 -6.61,6.7 -9.76,10.25 l -0.9,1.01 -0.82,1.42 c -0.97,1.62 -2.1,3.16 -3.08,4.78 -1.49,2.44 -2.88,4.93 -4.17,7.48 -0.61,1.17 -1.15,2.38 -1.72,3.58 l -0.16,0.43 c -1.77,5.05 -3.37,10.12 -4.48,15.36 -0.21,0.99 -0.38,2 -0.56,3 l -0.62,5.98 c -0.18,3.17 -0.16,6.34 -0.17,9.51 -0.04,25.69 0,51.37 0,77.04 0,20.6 -0.55,41.27 0.04,61.86 0.06,2.01 0.26,4.01 0.33,6.02 l 0.02,1.6 0.38,1.5 c 1.11,4.76 2.1,9.48 3.62,14.14 l 2.01,5.44 c 0.64,1.33 1.29,2.64 1.97,3.95 1.11,2.09 2.27,4.17 3.51,6.21 l 4.5,6.77 c 2.51,3.05 5.19,5.98 8.01,8.73 1.69,1.65 3.48,3.2 5.22,4.78 l 2.31,1.78 c 3.54,2.42 7.14,4.74 10.92,6.79 1.8,0.98 3.64,1.89 5.49,2.77 -0.47,-0.34 5.46,1.97 6.54,2.31 4.6,1.44 9.28,2.55 14.03,3.4 l 1.82,0.19 c 3.03,0.09 6.04,0.33 9.08,0.36 h 2.11 c 5.22,0.02 10.46,0 15.68,0 22.06,0 44.11,0 66.17,0 41.77,0 83.53,0 125.3,0 v -1.39 l -0.28,-0.01 v -4.22 l 0.28,-0.08 c 0,-6.61 0,-13.22 0,-19.84 0,-26.26 -1.92,-53.64 4.32,-79.38 12.18,-50.2 53.03,-91.41 102.77,-104.87 19.2,-5.18 38.45,-5.06 58.03,-5.06 16.54,0 33.07,0 49.59,0 2.24,0 4.48,0 6.71,0 v -0.01 c 0,-1.4 0.01,-2.81 0,-4.22 -0.04,-3.03 -0.26,-6.04 -0.36,-9.08 z m -68.09,227.57 0.83,-0.17 c 3.82,-0.82 7.62,-1.64 11.37,-2.76 1.86,-0.56 3.66,-1.25 5.51,-1.81 l 1.54,-0.42 1.27,-0.69 c 4.24,-2.21 8.43,-4.34 12.45,-6.94 l 4.6,-3.18 2.35,-1.96 c 4.61,-4.06 8.86,-8.5 12.75,-13.26 l 0.16,-0.19 0.67,-1.14 c 1.47,-2.44 3.12,-4.75 4.53,-7.23 1.06,-1.84 5.68,-12.26 4.47,-8.72 1.53,-4.21 2.9,-8.46 3.95,-12.82 0.48,-1.96 0.88,-3.95 1.25,-5.94 -0.12,0.23 0.53,-4.74 0.59,-5.89 1.11,-20.82 0.16,-41.9 0.16,-62.74 0,-4.31 0,-8.63 0,-12.95 -2.23,0 -4.47,0 -6.71,0 -1.23,0 -2.46,0 -3.69,0 -18.95,0 -37.92,0 -56.88,0 -2.96,0 -5.93,-0.03 -8.89,0 -3.47,0.04 -6.9,0.22 -10.35,0.51 1.68,0.01 -8.47,1.69 -10.41,2.22 -2.81,0.75 -5.53,1.76 -8.31,2.59 l -1.13,0.34 -0.38,0.17 c -5.66,2.66 -10.79,5.92 -16.13,9.12 l -1.95,1.35 c -1.61,1.34 -3.19,2.71 -4.72,4.12 -3.48,3.23 -6.61,6.71 -9.75,10.27 l -0.91,0.99 -0.82,1.43 c -0.97,1.62 -2.1,3.16 -3.08,4.78 -1.49,2.43 -2.88,4.93 -4.17,7.47 -0.6,1.19 -1.15,2.4 -1.72,3.6 l -0.16,0.43 c -1.77,5.05 -3.36,10.11 -4.48,15.35 -0.21,0.99 -0.38,2 -0.56,3.01 l -0.62,5.97 c -0.17,3.18 -0.15,6.34 -0.16,9.51 -0.04,22.07 -0.01,44.12 0,66.17 19.12,0 38.24,0 57.36,0 5.44,0 10.89,0.02 16.33,0 h 2.43 c 3.82,-0.04 7.61,-0.23 11.41,-0.59 z m 469.04,142.76 c -25.79,44.89 -74.45,72.16 -125.91,72.75 -11.51,0.13 -23.03,0 -34.54,0 -59.91,0 -119.83,0 -179.75,0 -44.82,0 -89.65,0.16 -134.47,0 -40.32,-0.16 -80.08,-15.76 -107.75,-45.61 -26.92,-29 -38.72,-65.04 -39.46,-103.86 -24.26,0 -48.53,0 -72.81,0 -44.82,0 -89.65,0.16 -134.47,0 -40.32,-0.15 -80.08,-15.77 -107.76,-45.6 -27.79,-29.96 -39.59,-67.38 -39.59,-107.67 0,-29.06 0,-58.12 0,-87.18 0,-26.27 -1.91,-53.66 4.33,-79.39 12.18,-50.2 53.04,-91.41 102.76,-104.86 19.2,-5.2 38.46,-5.07 58.04,-5.07 107.36,0 214.73,0 322.09,0 2.97,0 5.94,0 8.91,0 52.66,0.7 103.19,29.38 127.94,76.51 8.61,16.42 12.91,33.15 15.09,50.3 l 0.08,-0.02 0.04,0.94 c 0.88,7.16 1.43,14.41 1.71,21.74 4.87,0 9.74,0 14.6,0 62.04,0 124.08,0 186.12,0 2.97,0 5.94,0 8.91,0 52.67,0.71 103.19,29.37 127.94,76.52 15.61,29.74 17.3,60.45 17.3,93 0,31.08 0,62.16 0,93.25 0,33.06 -2.35,64.64 -19.35,94.25"
         style="fill:#ffffff;fill-opacity:1;fill-rule:nonzero;stroke:none"
         id="path80" />
      <path
         d="m 9019.72,4968.2 c 0,-230.09 -186.53,-416.63 -416.62,-416.63 -230.1,0 -416.64,186.54 -416.64,416.63 0,230.1 186.54,416.62 416.64,416.62 230.09,0 416.62,-186.52 416.62,-416.62"
         style="fill:#ebb044;fill-opacity:1;fill-rule:nonzero;stroke:none"
         id="path82" />
      <path
         d="m 3558.87,2971.39 c -0.4,2.72 -1.01,5.4 -1.88,8.02 -8.09,24.49 -33.53,28.56 -46.42,47.51 -5.75,8.45 -2.69,38.87 -19.2,35.02 -6.08,-1.46 -26.98,-4.65 -47.74,-9.16 -17.46,2.71 -35.09,4.63 -52.21,8.98 -43.35,10.99 -121.98,85.28 -162.18,38.86 -7.78,-8.97 -15.71,-18.21 -19.87,-29.33 -3.41,-9.09 -4.11,-18.97 -4.31,-28.67 -0.16,-7.57 -2.22,-19.54 2.87,-24.89 5.34,-5.6 24.69,-8.13 32.24,-10.62 21.57,-7.12 43.14,-14.25 64.72,-21.37 21.15,-6.98 45.43,-17.19 50.65,-38.85 1.14,-4.74 1.23,-9.74 3,-14.28 2.01,-5.13 5.96,-9.2 9.93,-13.02 14.53,-13.96 30.54,-27.1 47.99,-37.33 31.19,-18.29 82.22,6.29 111.78,17.99 7.37,2.91 14.89,6.17 20.26,11.99 8.73,9.46 9.9,23.43 10.63,36.29 0.43,7.6 0.83,15.37 -0.26,22.86"
         style="fill:#e8c5bf;fill-opacity:1;fill-rule:nonzero;stroke:none"
         id="path84" />
      <path
         d="m 2771.17,3232.6 c 13.43,-25.2 27.1,-50.73 46.72,-71.49 15.65,-16.54 34.61,-29.53 53.72,-41.91 118.51,-76.76 249.04,-134.91 385.37,-171.69 35.91,55.88 60.63,118.93 72.24,184.32 -102.16,54.96 -199.93,118.07 -292.08,188.53 -18.84,14.42 -37.68,29.35 -52,48.26 -20.65,27.24 -30.62,60.87 -40.19,93.68 -37.11,127.27 -74.23,254.53 -111.34,381.79 -22.39,76.79 -46.17,156.18 -98.59,216.58 -145.35,167.51 -376.94,9.28 -308.58,-185.99 76.74,-219.27 235.14,-436.49 344.73,-642.08"
         style="fill:#ebb044;fill-opacity:1;fill-rule:nonzero;stroke:none"
         id="path86" />
    </g>
  </g>
</svg>
